<svg xmlns="http://www.w3.org/2000/svg" viewBox="0 0 217.8314 217.8314">
  <defs>
    <style>
      .a {
        fill: transparent;
      }

      .b {
        fill: #333;
      }
    </style>
  </defs>
  <title>card4</title>
  <g>
    <rect class="a" width="217.8314" height="217.8314"/>
    <g>
      <path class="b" d="M196.8571,22.8141H113.3412a3.1386,3.1386,0,1,0,0,6.2771h83.5159a7.6835,7.6835,0,0,1,7.675,7.6746v96.74H165.3077V87.0917a28.8408,28.8408,0,0,0-2.0356-53.1457,3.1386,3.1386,0,0,0-4.2415,2.9384V57.808H147.6V36.7568a3.1391,3.1391,0,0,0-4.1987-2.9544,28.8418,28.8418,0,0,0-2.0787,53.449v46.2544h-40.54V118.9006l2.1894,4.71c.021.0449.0425.0889.0655.1328a9.7682,9.7682,0,0,0,8.6777,5.2522h16.9727a3.1387,3.1387,0,0,0,0-6.2773H111.7152a3.5068,3.5068,0,0,1-3.0869-1.8316L100.7826,104.01V99.5563a3.1387,3.1387,0,1,0-6.2773,0v33.95H59.3085V99.5563a3.1387,3.1387,0,0,0-6.2774,0v33.95H41.0919l7.3294-43.8823a10.9261,10.9261,0,0,1,10.56-8.105h1.1272a10.2178,10.2178,0,0,0,10.1018-8.8047,17.0595,17.0595,0,0,0,12.2854-.7046,10.2156,10.2156,0,0,0,10.1748,9.5093H94.49a10.9808,10.9808,0,0,1,10.5088,7.9182c.0274.0967.06.1919.0967.2856l8.7273,22.1458a3.1382,3.1382,0,0,0,2.92,1.9878h12.382a3.1387,3.1387,0,0,0,0-6.2774H118.879l-7.8911-20.0246A17.2873,17.2873,0,0,0,94.49,75.2414H92.6708a3.9377,3.9377,0,0,1-3.9331-3.9336V67.2463l-.0005-.0049a17.1173,17.1173,0,0,0,3.9094-10.9029V48.8752c.3545.0432.667.0825.9036.1132a5.5762,5.5762,0,0,0,5.22-2.2,5.2347,5.2347,0,0,0,.5525-5.3562,3.1512,3.1512,0,0,0-.4126-.6645L95.0389,35.988l.0459-9.9756v-.0459a10.1263,10.1263,0,0,0-9.1594-9.96l-7.12-.7112a37.3456,37.3456,0,0,0-6.47-.0027l-7.4983.72a10.14,10.14,0,0,0-9.1965,9.8623l-.0007.0483-.0491,10.0762-3.8391,4.873a3.1579,3.1579,0,0,0-.4136.6932,5.2424,5.2424,0,0,0,.6306,5.2937,5.5756,5.5756,0,0,0,4.46,2.2058,5.69,5.69,0,0,0,.7209-.0457c.2835-.0364.6575-.083,1.1021-.1362v7.456a17.1413,17.1413,0,0,0,5.79,12.8343v2.135a3.9379,3.9379,0,0,1-3.9331,3.9336H58.9816A17.2,17.2,0,0,0,42.308,88.19q-.033.1288-.0547.26l-7.5256,45.0557H11.76v-96.74a7.6831,7.6831,0,0,1,7.6744-7.6746H37.691a3.1386,3.1386,0,1,0,0-6.2771H19.434A13.9676,13.9676,0,0,0,5.4823,36.7658V147.96A13.9676,13.9676,0,0,0,19.434,161.9118H85.1732v25.3349A13.1279,13.1279,0,0,1,72.06,200.36H51.2977a3.1387,3.1387,0,0,0,0,6.2774H164.994a3.1387,3.1387,0,0,0,0-6.2774H144.2316a13.1278,13.1278,0,0,1-13.1131-13.1133V161.9118h65.7386A13.9677,13.9677,0,0,0,210.8092,147.96V36.7658A13.9677,13.9677,0,0,0,196.8571,22.8141ZM61.19,39.0356a3.1385,3.1385,0,0,0,.6731-1.9273l.0544-11.1274a3.8625,3.8625,0,0,1,3.52-3.72l7.4673-.7168a30.9279,30.9279,0,0,1,5.3149.0012l7.0828.7075a3.8566,3.8566,0,0,1,3.5056,3.7568l-.051,11.0694a3.1387,3.1387,0,0,0,.6994,1.99l2.784,3.437a154.9508,154.9508,0,0,0-16.6621-1.0493,161.0008,161.0008,0,0,0-17.1507,1.0857Zm14.3882,8.6977c3.7629,0,7.5905.23,10.7915.4983v8.1069a10.92,10.92,0,1,1-21.84,0V48.2463C67.8278,47.97,71.76,47.7333,75.5778,47.7333Zm69.9431,34.4485a22.563,22.563,0,0,1-4.1988-40.45V60.9467a3.1385,3.1385,0,0,0,3.1387,3.1387h17.7083a3.1384,3.1384,0,0,0,3.1386-3.1387V41.9552A22.5586,22.5586,0,0,1,161.066,82.07a3.1389,3.1389,0,0,0-2.0354,2.9385v48.4971H147.6v-48.37A3.139,3.139,0,0,0,145.5209,82.1818ZM129.96,200.36H86.3317A19.3172,19.3172,0,0,0,91.45,187.2467V161.9118h33.3909v25.3349A19.3172,19.3172,0,0,0,129.96,200.36Zm66.8973-44.7253H19.434A7.683,7.683,0,0,1,11.76,147.96v-8.1772H204.5321V147.96A7.6834,7.6834,0,0,1,196.8571,155.6347Z"/>
      <path class="b" d="M84.4215,35.467a3.1385,3.1385,0,0,0-3.1384-3.1387h-12.37a3.1387,3.1387,0,0,0,0,6.2773h12.37A3.1383,3.1383,0,0,0,84.4215,35.467Z"/>
      <path class="b" d="M75.4491,63.1967a5.9435,5.9435,0,0,0,5.9434-5.9436H69.5055A5.9435,5.9435,0,0,0,75.4491,63.1967Z"/>
    </g>
  </g>
</svg>
