<svg xmlns="http://www.w3.org/2000/svg" xmlns:xlink="http://www.w3.org/1999/xlink" viewBox="0 0 576.2336 421.2369">
  <defs>
    <style>
      .a {
        isolation: isolate;
      }

      .b {
        fill: #dee5e9;
      }

      .ad, .ah, .b, .bi, .cb, .cc, .ce, .cm {
        mix-blend-mode: multiply;
      }

      .c {
        fill: url(#a);
      }

      .d {
        fill: #888da3;
      }

      .e {
        fill: #eff0f5;
      }

      .f {
        fill: #bfc4d5;
      }

      .g {
        fill: #2a2a2c;
      }

      .h {
        fill: #3a3f47;
      }

      .i {
        fill: #3e444d;
      }

      .j {
        fill: #e1eafb;
      }

      .k {
        fill: #516f83;
      }

      .l {
        fill: #c4c8d8;
      }

      .m {
        fill: #a0a6c0;
      }

      .n {
        fill: #767c95;
      }

      .o {
        fill: #85787c;
      }

      .p {
        fill: url(#b);
      }

      .q {
        fill: url(#c);
      }

      .r {
        fill: url(#d);
      }

      .s {
        fill: url(#e);
      }

      .t {
        fill: url(#f);
      }

      .u {
        fill: url(#g);
      }

      .v {
        fill: url(#h);
      }

      .w {
        fill: url(#i);
      }

      .x {
        fill: url(#j);
      }

      .y {
        fill: url(#k);
      }

      .z {
        fill: url(#l);
      }

      .aa {
        fill: url(#m);
      }

      .ab {
        fill: url(#n);
      }

      .ac {
        fill: url(#o);
      }

      .ad {
        fill: #dfe4eb;
      }

      .ae {
        fill: #edf4ff;
      }

      .af {
        fill: #dde7f8;
      }

      .ag {
        fill: #ebf4ff;
      }

      .ah {
        fill: #bfb5bf;
      }

      .ai {
        fill: #0f0e1b;
      }

      .aj {
        fill: #23222d;
      }

      .ak {
        fill: #e4dfd9;
      }

      .al {
        fill: #2d2c37;
      }

      .am {
        fill: #504f58;
      }

      .an {
        fill: #c2c7d6;
      }

      .ao {
        fill: #a5acc2;
      }

      .ap {
        fill: #cfd9e7;
      }

      .aq {
        fill: #b5bbcd;
      }

      .ar {
        fill: #e1e7ef;
      }

      .as {
        fill: #6b6164;
      }

      .at {
        fill: #f3f1ee;
      }

      .au {
        fill: #98979d;
      }

      .av {
        fill: #cdc6bc;
      }

      .aw {
        fill: #7572a4;
      }

      .ax {
        fill: #9b897f;
      }

      .ay {
        fill: #ff9a2e;
      }

      .az {
        fill: #ff512e;
      }

      .ba {
        fill: #f9f1ec;
      }

      .bb {
        fill: #c9c3b9;
      }

      .bc {
        fill: #ded8d1;
      }

      .bd {
        fill: #b5aa9c;
      }

      .be {
        fill: #393843;
      }

      .bf {
        fill: #c4c2bb;
      }

      .bg {
        fill: #b0ac9e;
      }

      .bh {
        fill: #b7b4a9;
      }

      .bj {
        fill: #9d9783;
      }

      .bk {
        fill: #d5d2c9;
      }

      .bl {
        fill: #cac6bc;
      }

      .bm {
        fill: #dddddb;
      }

      .bn {
        fill: #493f41;
      }

      .bo {
        fill: #554d4e;
      }

      .bp {
        fill: #573f3f;
      }

      .bq {
        fill: #e06f2e;
      }

      .br {
        fill: #d83b2e;
      }

      .bs {
        fill: #9da1bf;
      }

      .bt {
        fill: #ebe7e3;
      }

      .bu {
        fill: #faf8f5;
      }

      .bv {
        fill: #b08480;
      }

      .bw {
        fill: #d6b6b2;
      }

      .bx {
        fill: #fcfbfa;
      }

      .by {
        fill: #e07427;
      }

      .bz {
        fill: #5c5b64;
      }

      .ca {
        fill: #cfcedf;
      }

      .cb {
        fill: #eefaf9;
      }

      .cc {
        fill: #f5ec73;
      }

      .cd {
        fill: #997a77;
      }

      .ce {
        fill: #f2f1f0;
      }

      .cf {
        fill: #cbcadd;
      }

      .cg {
        fill: #5c504e;
      }

      .ch {
        fill: #383838;
      }

      .ch, .cz {
        mix-blend-mode: screen;
      }

      .ci {
        fill: #e9e5e1;
      }

      .cj {
        fill: #d9d3cc;
      }

      .ck {
        fill: #f5b53d;
      }

      .cl {
        fill: #de4037;
      }

      .cm {
        fill: #ff8e8c;
      }

      .cn {
        fill: #898184;
      }

      .co {
        fill: url(#p);
      }

      .cp {
        fill: #ff4c4a;
      }

      .cq {
        fill: #ff8685;
      }

      .cr {
        fill: #ff7270;
      }

      .cs {
        fill: #eac87c;
      }

      .ct {
        fill: #a88b4e;
      }

      .cu {
        fill: #cfaf6c;
      }

      .cv {
        fill: #fddb93;
      }

      .cw {
        fill: #f4d795;
      }

      .cx {
        fill: #ffeaba;
      }

      .cy {
        fill: #bd9f5e;
      }

      .cz {
        fill: #756b56;
      }

      .da {
        fill: #ecd097;
      }

      .db {
        fill: #fff8e6;
      }

      .dc {
        fill: #ab9589;
      }
    </style>
    <linearGradient id="a" data-name="Áåçûìÿííûé ãðàäèåíò 114" x1="4327.6613" y1="241.0444" x2="4903.8945" y2="241.0444" gradientTransform="matrix(-1, 0, 0, 1, 4903.8947, 0)" gradientUnits="userSpaceOnUse">
      <stop offset="0" stop-color="#c4c8d8"/>
      <stop offset="0.0225" stop-color="#c4c8d8"/>
      <stop offset="0.2827" stop-color="#c4c8d8"/>
      <stop offset="0.3039" stop-color="#c0c5d6"/>
      <stop offset="0.3229" stop-color="#b6bace"/>
      <stop offset="0.3409" stop-color="#a3a9c2"/>
      <stop offset="0.3436" stop-color="#a0a6c0"/>
      <stop offset="0.9862" stop-color="#a0a6c0"/>
      <stop offset="0.9908" stop-color="#b4b9cd"/>
      <stop offset="0.9954" stop-color="#c0c4d5"/>
      <stop offset="1" stop-color="#c4c8d8"/>
    </linearGradient>
    <linearGradient id="b" data-name="Áåçûìÿííûé ãðàäèåíò 16" x1="56.6079" y1="266.2555" x2="291.4876" y2="129.5182" gradientUnits="userSpaceOnUse">
      <stop offset="0" stop-color="#ffe25b"/>
      <stop offset="1" stop-color="#ff7270"/>
    </linearGradient>
    <linearGradient id="c" x1="56.6555" y1="266.3374" x2="291.5345" y2="129.6005" xlink:href="#b"/>
    <linearGradient id="d" x1="56.703" y1="266.4194" x2="291.5839" y2="129.6814" xlink:href="#b"/>
    <linearGradient id="e" x1="56.7503" y1="266.5015" x2="291.6316" y2="129.7633" xlink:href="#b"/>
    <linearGradient id="f" x1="59.4269" y1="271.0989" x2="294.3074" y2="134.3611" xlink:href="#b"/>
    <linearGradient id="g" x1="70.1384" y1="289.4987" x2="305.0186" y2="152.7611" xlink:href="#b"/>
    <linearGradient id="h" x1="81.7031" y1="309.3641" x2="316.5833" y2="172.6266" xlink:href="#b"/>
    <linearGradient id="i" x1="93.2688" y1="329.2289" x2="328.1485" y2="192.4916" xlink:href="#b"/>
    <linearGradient id="j" x1="104.8322" y1="349.0952" x2="339.7134" y2="212.357" xlink:href="#b"/>
    <linearGradient id="k" x1="116.3977" y1="368.9601" x2="351.2774" y2="232.2228" xlink:href="#b"/>
    <linearGradient id="l" x1="127.9621" y1="388.8257" x2="362.8436" y2="252.0874" xlink:href="#b"/>
    <linearGradient id="m" x1="139.5271" y1="408.6909" x2="374.4075" y2="271.9532" xlink:href="#b"/>
    <linearGradient id="n" x1="151.0922" y1="428.5563" x2="385.9724" y2="291.8188" xlink:href="#b"/>
    <linearGradient id="o" x1="173.8875" y1="442.2166" x2="408.7676" y2="305.479" xlink:href="#b"/>
    <linearGradient id="p" data-name="Áåçûìÿííûé ãðàäèåíò 11" x1="142.6995" y1="309.1683" x2="460.3676" y2="309.1683" gradientUnits="userSpaceOnUse">
      <stop offset="0" stop-color="#57a2ff"/>
      <stop offset="1" stop-color="#ff7270"/>
    </linearGradient>
  </defs>
  <title>Asset 6</title>
  <g class="a">
    <g>
      <g>
        <g>
          <path class="b" d="M401.4727,416.1522l165.9544-95.8136c13.0544-7.5368,11.4022-20.8251-3.6726-29.5286L225.906,95.753c-15.0748-8.7035-38.0894-9.6578-51.1452-2.12L8.8071,189.4463c-13.0552,7.538-11.4028,20.8256,3.6719,29.5286L350.3276,414.0318C365.4024,422.7354,388.4175,423.69,401.4727,416.1522Z"/>
          <path class="c" d="M0,172.8812l10.4618,4.4576L174.7608,82.4807c13.0558-7.5381,36.07-6.5832,51.1452,2.12L563.7545,279.6573c.6631.3826,1.267.785,1.8787,1.1846l10.6-3.1075v13.4828l-.02.01c-.0989,4.72-2.9779,9.2147-8.7866,12.5671L401.4727,399.6079c-13.0545,7.538-36.07,6.5839-51.1458-2.12L12.479,202.4312c-8.1176-4.686-12.3037-10.7-12.4367-16.4327l-.0376-.0019Z"/>
          <g>
            <g>
              <path class="d" d="M422.4868,380.1991c0,1.2166.8595,1.7066,1.92,1.0944a4.23,4.23,0,0,0,1.92-3.3111c0-1.2166-.86-1.7067-1.92-1.0946A4.23,4.23,0,0,0,422.4868,380.1991Z"/>
              <path class="d" d="M429.1982,376.0077c0,1.2165.86,1.7066,1.92,1.0945a4.23,4.23,0,0,0,1.92-3.3113c0-1.2166-.8594-1.7066-1.92-1.0944A4.23,4.23,0,0,0,429.1982,376.0077Z"/>
              <path class="d" d="M435.91,371.8163c0,1.2166.8594,1.7066,1.92,1.0945a4.23,4.23,0,0,0,1.92-3.3112c0-1.2166-.86-1.7067-1.92-1.0945A4.23,4.23,0,0,0,435.91,371.8163Z"/>
              <path class="d" d="M442.621,367.6249c0,1.2166.86,1.7066,1.92,1.0946a4.23,4.23,0,0,0,1.92-3.3113c0-1.2166-.86-1.7066-1.92-1.0944A4.23,4.23,0,0,0,442.621,367.6249Z"/>
            </g>
            <g>
              <path class="d" d="M530.23,318.205c0,1.2166.8594,1.7067,1.92,1.0945a4.23,4.23,0,0,0,1.92-3.3112c0-1.2166-.8594-1.7067-1.92-1.0945A4.23,4.23,0,0,0,530.23,318.205Z"/>
              <path class="d" d="M536.9409,314.0136c0,1.2166.8595,1.7066,1.92,1.0946a4.23,4.23,0,0,0,1.92-3.3113c0-1.2166-.86-1.7066-1.92-1.0944A4.23,4.23,0,0,0,536.9409,314.0136Z"/>
              <path class="d" d="M543.6524,309.8223c0,1.2166.86,1.7066,1.92,1.0945a4.23,4.23,0,0,0,1.92-3.3112c0-1.2166-.86-1.7067-1.92-1.0945A4.23,4.23,0,0,0,543.6524,309.8223Z"/>
              <path class="d" d="M550.3638,305.6309c0,1.2166.86,1.7066,1.92,1.0945a4.23,4.23,0,0,0,1.92-3.3112c0-1.2166-.8594-1.7066-1.92-1.0946A4.23,4.23,0,0,0,550.3638,305.6309Z"/>
            </g>
          </g>
          <path class="e" d="M401.4727,386.7382l165.9544-95.8137c13.0544-7.5366,11.4022-20.8249-3.6726-29.5285L225.906,66.3391c-15.0748-8.7037-38.0894-9.6579-51.1452-2.12L8.8071,160.0323C-4.2481,167.57-2.5957,180.8579,12.479,189.5608L350.3276,384.6177C365.4024,393.3214,388.4175,394.2756,401.4727,386.7382Z"/>
          <path class="f" d="M12.479,187.7058,350.3269,382.7627c15.0755,8.7037,38.0913,9.6586,51.1458,2.12L567.4271,289.07c5.517-3.186,8.3782-7.4031,8.7378-11.8626.3819,5.1351-2.46,10.0925-8.7378,13.7169L401.4727,386.7382c-13.0545,7.5381-36.07,6.5832-51.1458-2.12L12.479,189.5608C3.7754,184.5364-.424,177.9861.0686,171.8935.4808,177.4369,4.6545,183.1878,12.479,187.7058Z"/>
          <path class="g" d="M10.6556,179.7582a24.2723,24.2723,0,0,0,8.31,7.4195l82.2693,47.4863L205.9133,295.09l148.5722,85.7727c12.6139,7.301,31.8459,8.1024,42.7674,1.78L548.9121,295.09l11.426-6.5877c10.9222-6.3218,9.5268-17.4218-3.0871-24.7228L506.8269,234.664l-95.12-54.9058-130.35-75.2659L221.7612,70.0945c-12.6126-7.3-31.8743-8.0721-42.7971-1.7805l-62.652,36.1783L15.9085,162.4549C8.2816,166.8775,6.6491,173.6142,10.6556,179.7582Z"/>
          <path class="h" d="M12.8583,178.322a15.8024,15.8024,0,0,0,1.0524,1.43,22.6121,22.6121,0,0,0,6.3532,5.1752l86.1263,49.732,11.9073,6.8578,92.8168,53.5618,15.946,9.2141,77.3745,44.64,51.3729,29.6629a46.831,46.831,0,0,0,22.8881,5.7225c6.7327,0,12.9176-1.4309,17.2512-3.9556l33.9967-19.6062,113.7689-65.6779,15.315-8.7938c3.9551-2.3146,6.0591-5.26,6.0591-8.4573,0-4.1652-3.3664-8.4145-9.13-11.823l-54.36-31.3455-95.0887-54.9072-10.0554-5.8055L276.0771,104.48,258.868,94.5505,220.4547,72.3776c-6.2269-3.6614-14.6-5.681-22.9309-5.681a39.7227,39.7227,0,0,0-12.7061,1.8945,21.4476,21.4476,0,0,0-4.5866,1.9775L121.5375,104.48,96.3346,119.0383l-79.1,45.65c-3.2813,1.894-5.301,4.2495-5.89,6.7743A8.5643,8.5643,0,0,0,12.8583,178.322Z"/>
          <path class="i" d="M258.868,94.5505l45.5668,254.3822,51.3729,29.6629a46.831,46.831,0,0,0,22.8881,5.7225c6.7327,0,12.9176-1.4309,17.2512-3.9556l33.9967-19.6062-33.4915-186.81L276.0771,104.48Z"/>
          <path class="i" d="M96.3346,119.0383l21.9629,122.4783,92.8168,53.5618,15.946,9.2141L184.8177,68.5911a21.4476,21.4476,0,0,0-4.5866,1.9775L121.5375,104.48Z"/>
          <path class="j" d="M554.365,278.1213c0,3.0049-1.9869,5.7591-5.6928,7.946l-14.39,8.2632-28.73,16.5765-47.1591,27.2272-31.0329,17.912-31.9515,18.43c-4.0731,2.37-9.8824,3.7059-16.2093,3.7059a43.9014,43.9014,0,0,1-21.501-5.3752L303.4455,341.49l-72.7-41.9507-14.9907-8.6474-74.5031-43.0023-12.72-7.3449L117.3469,234.1l-23.538-13.5883L36.4,187.3754a20.756,20.756,0,0,1-5.96-4.8743,13.964,13.964,0,0,1-1.0017-1.3356,8.05,8.05,0,0,1-1.4187-6.4434c.5506-2.3707,2.4538-4.5907,5.5423-6.377l47.81-25.274,24.2724,1.4858,14.039-8.1132L158.63,113.9409c.4341-.25.8514-.4839,1.2019-.6842,1.1852-.6845,1.8694-1.0685,1.8694-1.0685l-.5839-16.3262,25.6078-15.9588a20.21,20.21,0,0,1,4.3234-1.8532,37.2908,37.2908,0,0,1,11.9357-1.7861c7.8295,0,15.6921,1.903,21.5515,5.342l36.0914,20.8334,16.1759,9.3316L389.9177,177.059l9.4483,5.4421,89.36,51.5993,57.0582,32.903C551.193,270.2086,554.365,274.1981,554.365,278.1213Z"/>
          <path class="g" d="M94.2,137.1251l40.8835-23.6039c.7455-.4307.6506-1.19-.21-1.6871h0a3.26,3.26,0,0,0-2.9211-.1212L91.0691,135.3168c-.7454.4307-.6519,1.19.21,1.6872h0A3.2609,3.2609,0,0,0,94.2,137.1251Z"/>
          <path class="h" d="M135.3986,113.2268a1.6342,1.6342,0,0,0-.5249-.4656,3.26,3.26,0,0,0-2.9211-.12L91.0691,136.2446a1.0461,1.0461,0,0,0-.3147.2931.7823.7823,0,0,1,.3147-1.2209l40.8835-23.6039a3.26,3.26,0,0,1,2.9211.1212C135.5665,112.2344,135.7364,112.7955,135.3986,113.2268Z"/>
          <path class="h" d="M145.7161,105.0268a9.83,9.83,0,0,0,8.8966-.0164c2.4648-1.4225,2.4773-3.7221.0283-5.1358a9.833,9.833,0,0,0-8.8972.0158C143.28,101.3127,143.2664,103.6129,145.7161,105.0268Z"/>
          <path class="k" d="M147.3584,104.0786a6.2152,6.2152,0,0,0,5.6218-.01c1.5574-.9,1.5653-2.3522.0171-3.2458a6.2117,6.2117,0,0,0-5.621.01C145.8188,101.7316,145.8109,103.1856,147.3584,104.0786Z"/>
          <path class="g" d="M137.2338,110.66a6.943,6.943,0,0,0,6.2823-.0112c1.74-1.0048,1.75-2.6287.02-3.6277a6.9449,6.9449,0,0,0-6.2823.0112C135.5125,108.038,135.5039,109.6619,137.2338,110.66Z"/>
          <g>
            <path class="l" d="M36.8216,213.9741l19.7591,11.4075c1.6117.9309,2.931-.066,2.931-2.2158h0a7.048,7.048,0,0,0-2.931-5.6008L36.8216,206.157c-1.6122-.93-2.9316.0665-2.9316,2.2163h0A7.0462,7.0462,0,0,0,36.8216,213.9741Z"/>
            <path class="m" d="M35.33,214.9022,55.0891,226.31c1.6118.9309,2.9311-.0659,2.9311-2.2158h0a7.0473,7.0473,0,0,0-2.9311-5.6007L35.33,207.0856c-1.6122-.9308-2.9315.066-2.9315,2.2158h0A7.0468,7.0468,0,0,0,35.33,214.9022Z"/>
          </g>
          <g>
            <path class="l" d="M162.5608,286.5158,182.32,297.9239c1.6128.9309,2.9315-.0665,2.9315-2.2159h0a7.0435,7.0435,0,0,0-2.9315-5.6007l-19.7591-11.4081c-1.6118-.9308-2.9311.0665-2.9311,2.2163h0A7.046,7.046,0,0,0,162.5608,286.5158Z"/>
            <path class="m" d="M161.0692,287.444l19.7591,11.4081c1.6122.9309,2.9316-.0666,2.9316-2.2164h0a7.0452,7.0452,0,0,0-2.9316-5.6l-19.7591-11.4081c-1.6117-.9308-2.931.0665-2.931,2.2164h0A7.0452,7.0452,0,0,0,161.0692,287.444Z"/>
          </g>
          <path class="m" d="M474.81,350.7258c0,1.9267,1.1906,2.814,2.6353,1.9772l17.7924-10.2388a6.3758,6.3758,0,0,0,2.6357-5.0444c0-1.9254-1.191-2.8381-2.6357-2.0025l-1.749,1.0145-16.0434,9.2507a6.09,6.09,0,0,0-2.458,3.675A5.19,5.19,0,0,0,474.81,350.7258Z"/>
          <path class="n" d="M474.987,349.3575l16.0434-9.2766a6.0314,6.0314,0,0,0,2.458-3.6491l-16.0434,9.2507A6.09,6.09,0,0,0,474.987,349.3575Z"/>
        </g>
        <path class="o" d="M505.553,310.907l-47.1591,27.2272L235.1026,208.7766a26.0584,26.0584,0,0,0-26.1088,0l-67.7422,39.1126-12.72-7.3449L117.3469,234.1l-23.538-13.5883,70.0791-40.4482a7.1606,7.1606,0,0,0,0-12.4033l-48.845-28.1953c1.5193-1.0183,3.055-2.02,4.6408-3.0216q3.2554-2.0778,6.7108-4.0565c9.5319-5.4921,25.5411-14.64,32.2351-18.4463.4341-.25.8514-.4839,1.2019-.6842,1.1852-.6845,1.8694-1.0685,1.8694-1.0685Z"/>
        <g>
          <polygon class="p" points="119.561 227.273 123.527 229.563 137.937 221.243 133.971 218.953 119.561 227.273"/>
          <polygon class="q" points="142.357 214.112 146.323 216.401 160.732 208.082 156.767 205.792 142.357 214.112"/>
          <polygon class="r" points="165.153 200.951 169.119 203.24 183.528 194.921 179.563 192.631 165.153 200.951"/>
          <polygon class="s" points="187.949 187.79 191.914 190.079 206.324 181.76 202.358 179.47 187.949 187.79"/>
          <path class="t" d="M212.4282,174.9641l1.7191,2.1067a1.68,1.68,0,0,0,1.6939.5637,34.9523,34.9523,0,0,1,7.6849-.8723,34.5472,34.5472,0,0,1,7.7.8475,1.6814,1.6814,0,0,0,1.7079-.5912l1.635-2.0862a44.0415,44.0415,0,0,0-22.1407.0318Z"/>
          <polygon class="u" points="240.828 181.714 255.329 190.086 259.269 187.811 244.769 179.439 240.828 181.714"/>
          <polygon class="v" points="263.767 194.958 278.267 203.33 282.208 201.054 267.708 192.683 263.767 194.958"/>
          <polygon class="w" points="286.706 208.202 301.206 216.573 305.147 214.298 290.647 205.926 286.706 208.202"/>
          <polygon class="x" points="309.645 221.445 324.145 229.817 328.086 227.542 313.586 219.17 309.645 221.445"/>
          <polygon class="y" points="332.584 234.689 347.084 243.061 351.025 240.786 336.525 232.414 332.584 234.689"/>
          <polygon class="z" points="355.523 247.933 370.023 256.305 373.964 254.03 359.464 245.658 355.523 247.933"/>
          <polygon class="aa" points="378.462 261.177 392.962 269.549 396.903 267.273 382.403 258.902 378.462 261.177"/>
          <polygon class="ab" points="405.342 272.145 401.401 274.421 415.901 282.793 419.842 280.517 405.342 272.145"/>
          <polygon class="ac" points="428.137 285.806 424.196 288.081 438.696 296.453 442.637 294.178 428.137 285.806"/>
        </g>
        <g>
          <polygon class="ad" points="496.052 283.235 475.129 270.934 501.608 256.522 503.747 283.235 496.052 283.235"/>
          <g>
            <polygon class="ae" points="530.225 253.154 530.225 268.827 503.747 283.235 503.747 267.562 530.225 253.154"/>
            <polygon class="af" points="503.747 267.562 503.747 283.235 482.828 270.935 482.828 255.264 503.747 267.562"/>
            <polygon class="ag" points="503.751 267.566 482.828 255.265 509.307 240.853 530.23 253.154 503.751 267.566"/>
          </g>
        </g>
        <g>
          <polygon class="ad" points="243.533 117.413 224.73 106.358 240.073 98.01 251.228 117.413 243.533 117.413"/>
          <g>
            <polygon class="ae" points="266.571 99.768 266.571 109.068 251.228 117.413 251.228 108.113 266.571 99.768"/>
            <polygon class="af" points="251.228 108.113 251.228 117.413 232.429 106.359 232.429 97.061 251.228 108.113"/>
            <polygon class="ag" points="251.232 108.116 232.429 97.062 247.772 88.713 266.575 99.768 251.232 108.116"/>
          </g>
        </g>
        <g>
          <polygon class="ad" points="204.854 132.691 186.051 121.637 209.847 108.685 212.549 132.691 204.854 132.691"/>
          <g>
            <polygon class="ae" points="236.345 101.167 236.345 119.744 212.549 132.691 212.549 114.115 236.345 101.167"/>
            <polygon class="af" points="212.549 114.115 212.549 132.691 193.749 121.637 193.749 103.063 212.549 114.115"/>
            <polygon class="ag" points="212.552 114.118 193.75 103.064 217.546 90.113 236.348 101.167 212.552 114.118"/>
          </g>
        </g>
        <g>
          <polygon class="ad" points="188.357 99.748 174.08 91.354 192.148 81.52 196.053 100.156 188.357 99.748"/>
          <g>
            <polygon class="ae" points="214.12 70.445 214.12 90.325 196.053 100.156 196.053 80.276 214.12 70.445"/>
            <polygon class="af" points="196.053 80.276 196.053 100.156 181.778 91.763 181.778 71.884 196.053 80.276"/>
            <polygon class="ag" points="196.055 80.278 181.779 71.885 199.846 62.051 214.123 70.445 196.055 80.278"/>
          </g>
        </g>
        <g>
          <polygon class="ad" points="224.941 292.078 206.138 281.023 221.481 272.674 232.636 292.078 224.941 292.078"/>
          <g>
            <polygon class="ae" points="247.979 274.433 247.979 283.733 232.636 292.078 232.636 282.778 247.979 274.433"/>
            <polygon class="af" points="232.636 282.778 232.636 292.078 213.837 281.024 213.837 271.726 232.636 282.778"/>
            <polygon class="ag" points="232.64 282.781 213.837 271.726 229.18 263.378 247.982 274.433 232.64 282.781"/>
          </g>
        </g>
        <g>
          <polygon class="ad" points="460.205 256.033 441.402 244.978 466.644 231.245 467.9 256.033 460.205 256.033"/>
          <g>
            <polygon class="ae" points="493.142 233.004 493.142 242.304 467.9 256.033 467.9 246.733 493.142 233.004"/>
            <polygon class="af" points="467.9 246.733 467.9 256.033 449.101 244.979 449.101 235.681 467.9 246.733"/>
            <polygon class="ag" points="467.904 246.736 449.101 235.682 474.342 221.949 493.145 233.004 467.904 246.736"/>
          </g>
        </g>
        <g>
          <polygon class="ad" points="335.782 352.689 316.979 341.634 332.322 333.286 343.477 352.689 335.782 352.689"/>
          <g>
            <polygon class="ae" points="358.819 335.044 358.819 344.344 343.477 352.689 343.477 343.389 358.819 335.044"/>
            <polygon class="af" points="343.477 343.389 343.477 352.689 324.677 341.635 324.677 332.337 343.477 343.389"/>
            <polygon class="ag" points="343.48 343.393 324.677 332.338 340.02 323.989 358.823 335.044 343.48 343.393"/>
          </g>
        </g>
        <g>
          <polygon class="ad" points="304.888 156.257 259.583 129.621 281.073 117.925 326.378 144.561 304.888 156.257"/>
          <g>
            <polygon class="ae" points="334.073 135.265 334.073 147.985 312.584 159.678 312.584 146.958 334.073 135.265"/>
            <polygon class="af" points="312.584 146.958 312.584 159.678 267.281 133.042 267.281 120.324 312.584 146.958"/>
            <polygon class="ag" points="312.587 146.961 267.281 120.325 288.771 108.629 334.077 135.265 312.587 146.961"/>
          </g>
        </g>
        <g>
          <polygon class="ad" points="426.17 233.716 375.635 204.538 396.869 192.283 433.863 233.716 426.17 233.716"/>
          <g>
            <polygon class="ae" points="455.097 198.702 455.097 221.466 433.863 233.716 433.863 210.952 455.097 198.702"/>
            <polygon class="af" points="433.863 210.952 433.863 233.716 383.333 204.539 383.333 181.778 433.863 210.952"/>
            <polygon class="ag" points="433.868 210.957 383.333 181.78 404.568 169.524 455.103 198.702 433.868 210.957"/>
          </g>
        </g>
        <g>
          <polygon class="ad" points="354.98 197.231 320.337 177.229 342.704 164.332 362.675 197.188 354.98 197.231"/>
          <g>
            <polygon class="ae" points="385.041 168.689 385.041 184.295 362.675 197.188 362.675 181.583 385.041 168.689"/>
            <polygon class="af" points="362.675 181.583 362.675 197.188 328.035 177.187 328.035 161.584 362.675 181.583"/>
            <polygon class="ag" points="362.678 181.587 328.035 161.585 350.402 148.687 385.045 168.689 362.678 181.587"/>
          </g>
        </g>
        <g>
          <polygon class="ad" points="47.483 183.4 29.681 172.935 72.403 149.691 55.179 183.135 47.483 183.4"/>
          <g>
            <polygon class="ae" points="91.235 152.671 91.235 163.52 55.179 183.135 55.179 172.286 91.235 152.671"/>
            <polygon class="af" points="55.179 172.286 55.179 183.135 37.379 172.671 37.379 161.823 55.179 172.286"/>
            <polygon class="ag" points="55.182 172.288 37.379 161.823 73.436 142.206 91.238 152.671 55.182 172.288"/>
          </g>
        </g>
        <g>
          <polygon class="ad" points="97.474 177.635 83.94 169.678 101.068 160.356 104.77 178.022 97.474 177.635"/>
          <g>
            <polygon class="af" points="104.77 153.513 104.77 178.022 91.238 170.066 91.238 145.558 104.77 153.513"/>
            <polygon class="ae" points="121.897 144.193 121.897 168.703 104.77 178.022 104.77 153.513 121.897 144.193"/>
            <polygon class="ag" points="104.772 153.515 91.238 145.558 108.366 136.236 121.9 144.193 104.772 153.515"/>
          </g>
        </g>
        <g>
          <polygon class="ad" points="405.176 351.792 391.642 343.835 408.769 334.513 412.471 352.179 405.176 351.792"/>
          <g>
            <polygon class="ae" points="429.599 318.35 429.599 342.859 412.471 352.179 412.471 327.67 429.599 318.35"/>
            <polygon class="af" points="412.471 327.67 412.471 352.179 398.94 344.222 398.94 319.714 412.471 327.67"/>
            <polygon class="ag" points="412.474 327.672 398.94 319.715 416.068 310.393 429.601 318.35 412.474 327.672"/>
          </g>
        </g>
        <g>
          <polygon class="ad" points="125.994 188.222 109.447 178.494 131.66 166.409 132.766 188.222 125.994 188.222"/>
          <g>
            <polygon class="ae" points="154.978 167.956 154.978 176.14 132.766 188.222 132.766 180.038 154.978 167.956"/>
            <polygon class="af" points="132.766 180.038 132.766 188.222 116.222 178.495 116.222 170.312 132.766 180.038"/>
            <polygon class="ag" points="132.768 180.041 116.222 170.313 138.435 158.228 154.982 167.956 132.768 180.041"/>
          </g>
        </g>
        <g>
          <polygon class="ad" points="370.868 364.781 354.321 355.053 376.534 342.968 377.64 364.781 370.868 364.781"/>
          <g>
            <polygon class="ae" points="399.853 344.516 399.853 352.7 377.64 364.781 377.64 356.598 399.853 344.516"/>
            <polygon class="af" points="377.64 356.598 377.64 364.781 361.096 355.054 361.096 346.871 377.64 356.598"/>
            <polygon class="ag" points="377.643 356.6 361.096 346.872 383.309 334.787 399.856 344.516 377.643 356.6"/>
          </g>
        </g>
        <g>
          <polygon class="ad" points="92.238 206.939 73.435 195.884 88.777 187.536 99.933 206.939 92.238 206.939"/>
          <g>
            <polygon class="ae" points="115.275 189.294 115.275 198.594 99.933 206.939 99.933 197.639 115.275 189.294"/>
            <polygon class="af" points="99.933 197.639 99.933 206.939 81.133 195.885 81.133 186.587 99.933 197.639"/>
            <polygon class="ag" points="99.936 197.643 81.133 186.588 96.476 178.239 115.279 189.294 99.936 197.643"/>
          </g>
        </g>
        <g>
          <polygon class="ad" points="371.494 331.161 352.691 320.107 368.034 311.758 379.189 331.161 371.494 331.161"/>
          <g>
            <polygon class="ae" points="394.532 313.517 394.532 322.817 379.189 331.161 379.189 321.862 394.532 313.517"/>
            <polygon class="af" points="379.189 321.862 379.189 331.161 360.389 320.107 360.389 310.81 379.189 321.862"/>
            <polygon class="ag" points="379.192 321.865 360.39 310.81 375.732 302.462 394.535 313.517 379.192 321.865"/>
          </g>
        </g>
        <g>
          <polygon class="ad" points="186.429 253.73 168.627 243.265 211.348 220.021 194.125 253.73 186.429 253.73"/>
          <g>
            <polygon class="ae" points="236.847 219.639 236.847 230.489 194.125 253.73 194.125 242.881 236.847 219.639"/>
            <polygon class="af" points="194.125 242.881 194.125 253.73 176.325 243.266 176.325 232.418 194.125 242.881"/>
            <polygon class="ag" points="194.128 242.883 176.325 232.418 219.047 209.174 236.849 219.639 194.128 242.883"/>
          </g>
        </g>
        <g>
          <polygon class="ad" points="237.826 269.751 213.534 255.469 244.277 238.737 244.154 269.818 237.826 269.751"/>
          <g>
            <polygon class="ae" points="267.618 229.758 267.618 257.051 244.154 269.818 244.154 242.525 267.618 229.758"/>
            <polygon class="af" points="244.154 242.525 244.154 269.818 219.866 255.537 219.866 228.247 244.154 242.525"/>
            <polygon class="ag" points="244.159 242.53 219.867 228.248 243.33 215.476 267.622 229.758 244.159 242.53"/>
          </g>
        </g>
        <g>
          <polygon class="ad" points="291.44 304.001 252.4 281.461 277.606 266.927 299.134 304.567 291.44 304.001"/>
          <g>
            <polygon class="ae" points="324.339 258.896 324.339 290.037 299.134 304.567 299.134 273.426 324.339 258.896"/>
            <polygon class="af" points="299.134 273.426 299.134 304.567 260.098 282.028 260.098 250.888 299.134 273.426"/>
            <polygon class="ag" points="299.138 273.43 260.098 250.889 285.304 236.355 324.344 258.896 299.138 273.43"/>
          </g>
        </g>
        <g>
          <polygon class="ad" points="319.608 323.812 301.805 313.347 344.527 290.103 327.304 323.547 319.608 323.812"/>
          <g>
            <polygon class="ae" points="363.36 293.083 363.36 303.932 327.304 323.547 327.304 312.698 363.36 293.083"/>
            <polygon class="af" points="327.304 312.698 327.304 323.547 309.504 313.083 309.504 302.235 327.304 312.698"/>
            <polygon class="ag" points="327.306 312.7 309.504 302.235 345.56 282.618 363.362 293.083 327.306 312.7"/>
          </g>
        </g>
        <g>
          <polygon class="ad" points="277.091 318.778 248.395 301.904 263.737 293.556 284.786 318.778 277.091 318.778"/>
          <g>
            <polygon class="ae" points="300.129 291.431 300.129 310.433 284.786 318.778 284.786 299.776 300.129 291.431"/>
            <polygon class="af" points="284.786 299.776 284.786 318.778 256.093 301.905 256.093 282.905 284.786 299.776"/>
            <polygon class="ag" points="284.79 299.78 256.093 282.906 271.436 274.558 300.132 291.431 284.79 299.78"/>
          </g>
        </g>
      </g>
      <g>
        <g>
          <g>
            <g>
              <polygon class="ah" points="261.291 162.685 404.292 245.268 355.965 273.17 212.963 190.587 261.291 162.685"/>
              <polygon class="ai" points="240.893 197.222 247.373 192.221 270.364 208.389 325.639 246.15 332.836 241.825 352.019 254.002 343.139 229.353 241.169 178.723 240.893 197.222"/>
              <path class="aj" d="M355.0627,253.6657c0-6.268-4.4281-13.9058-9.8905-17.06-2.7227-1.5719-5.1883-1.7328-6.9768-.7227h0l-.0016.0009-.0412.0238-6.2456,3.6087v4.8385l14.0274,19.2568,5.858-3.403a4.69,4.69,0,0,0,.7858-.4566l.0027-.0016v0C354.1249,258.64,355.0627,256.5494,355.0627,253.6657Z"/>
              <path class="aj" d="M269.5989,204.3232c0-6.2681-4.4281-13.9059-9.89-17.06-2.8884-1.6675-5.4872-1.747-7.2954-.5254l-6.1839,3.579,4.1872,6.8274a23.2738,23.2738,0,0,0,6.7,10.9247l3.6841,6.0069,5.4321-3.1675a4.6873,4.6873,0,0,0,.9832-.5733h0C268.7012,209.2075,269.5989,207.1448,269.5989,204.3232Z"/>
              <g>
                <path class="ak" d="M399.0347,214.4671v17.4693l-7.4594-4.3069a27.2065,27.2065,0,0,0-11.7137-15.1186c-7.0413-4.0653-8.0069.6663-11.9676,7.7215a16.0728,16.0728,0,0,0-.7757,1.97L307.81,187.96q.02-1.1393.0191-2.4065c0-8.08-5.7091-22.299-12.75-26.3643s-12.75-.81-12.75,7.2695q0,1.28.0441,2.443l-18.9111-10.9182V95.1757l115.5547,66.7155,6.8126,36.53Z"/>
                <path class="al" d="M390.4323,233.2449c0,6.268-4.428,8.7927-9.89,5.639s-9.89-10.7914-9.89-17.06,4.428-8.7927,9.89-5.639S390.4323,226.9769,390.4323,233.2449Z"/>
                <path class="al" d="M304.9687,183.9024c0,6.268-4.4282,8.7927-9.8906,5.639s-9.89-15.1633-9.89-21.4314,4.4281-8.7927,9.89-5.6389S304.9687,177.6345,304.9687,183.9024Z"/>
                <path class="am" d="M301.95,182.16c0,4.355-3.0765,6.109-6.8717,3.9179s-6.8716-11.87-6.8716-16.2245,3.0766-6.1089,6.8716-3.9178S301.95,177.8046,301.95,182.16Z"/>
                <path class="an" d="M301.3044,181.7868c0,3.9459-2.7875,5.5353-6.2263,3.55s-6.2262-11.1653-6.2262-15.1111,2.7876-5.5351,6.2262-3.55S301.3044,177.8411,301.3044,181.7868Z"/>
                <path class="ao" d="M300.6788,181.4257c0,3.5494-2.5075,4.9789-5.6007,3.1931s-5.6005-10.4826-5.6005-14.0321,2.5074-4.9789,5.6005-3.1931S300.6788,177.8764,300.6788,181.4257Z"/>
                <path class="ap" d="M298.514,175.8039c0,2.1775-1.5383,7.4264-3.4359,6.3309s-3.4358-8.1208-3.4358-10.2982,1.5383-3.0545,3.4358-1.959A7.5709,7.5709,0,0,1,298.514,175.8039Z"/>
                <path class="am" d="M387.4136,231.502c0,4.3549-3.0765,6.109-6.8717,3.9179a15.1413,15.1413,0,0,1-6.8717-11.8526c0-4.3549,3.0765-6.109,6.8717-3.9179A15.1415,15.1415,0,0,1,387.4136,231.502Z"/>
                <ellipse class="aq" cx="380.5419" cy="227.5347" rx="5.0677" ry="8.7779" transform="translate(-62.8146 223.1566) rotate(-30.3104)"/>
                <path class="ap" d="M385.3167,230.2914c0,3.0259-2.1378,4.2447-4.7748,2.7223a10.5212,10.5212,0,0,1-4.7747-8.2358c0-3.0259,2.1377-4.2447,4.7747-2.7222A10.5211,10.5211,0,0,1,385.3167,230.2914Z"/>
                <path class="ar" d="M383.1468,229.0386c0,1.6509-1.1662,2.3159-2.6049,1.4852a5.74,5.74,0,0,1-2.6049-4.4931c0-1.6509,1.1662-2.3158,2.6049-1.4852A5.74,5.74,0,0,1,383.1468,229.0386Z"/>
                <path class="an" d="M381.9571,228.3517c0,.8968-.6336,1.2581-1.4152.8068a3.1181,3.1181,0,0,1-1.4151-2.4408c0-.8969.6335-1.2581,1.4151-.8069A3.1183,3.1183,0,0,1,381.9571,228.3517Z"/>
                <polygon class="as" points="401.048 238.736 359.38 257.006 352.413 254.617 348.058 252.103 392.484 226.454 399.315 230.398 401.048 232.949 401.048 238.736"/>
                <polygon class="at" points="378.248 159.351 264.414 93.629 263.461 95.176 379.015 161.891 378.248 159.351"/>
                <polygon class="au" points="347.756 184.568 265.228 136.921 265.228 134.528 347.756 182.175 347.756 184.568"/>
                <polygon class="av" points="348.868 209.248 348.868 151.596 372.661 165.332 372.661 203.706 364.836 218.467 348.868 209.248"/>
                <polygon class="al" points="379.532 169.3 374.17 166.204 374.17 196.556 382.114 201.142 384.359 197.486 379.532 169.3"/>
                <polygon class="aw" points="374.885 196.148 374.885 167.437 378.981 169.802 383.597 196.948 381.68 200.071 374.885 196.148"/>
                <polygon class="ax" points="367.118 220.516 347.756 209.337 347.756 211.023 367.118 222.202 367.118 220.516"/>
                <polygon class="ax" points="263.461 156.297 256.679 152.381 256.679 154.068 263.461 157.984 263.461 156.297"/>
                <polygon class="am" points="396.9 220.823 394.06 219.183 394.06 215.924 396.9 217.564 396.9 220.823"/>
                <polygon class="ay" points="396.659 220.407 394.301 219.046 394.301 216.34 396.659 217.702 396.659 220.407"/>
                <path class="am" d="M269.5653,145.2447c0,1.0071-.7115,1.4128-1.5892.906a3.5014,3.5014,0,0,1-1.589-2.741c0-1.007.7114-1.4127,1.589-.906A3.5017,3.5017,0,0,1,269.5653,145.2447Z"/>
                <path class="az" d="M269.2349,145.0538c0,.7977-.5635,1.119-1.2588.7177a2.7733,2.7733,0,0,1-1.2586-2.1709c0-.7977.5635-1.119,1.2586-.7177A2.7733,2.7733,0,0,1,269.2349,145.0538Z"/>
                <path class="ba" d="M268.8774,151.0263c0,.6845-.4835.96-1.08.6158a2.38,2.38,0,0,1-1.08-1.8627c0-.6844.4835-.96,1.08-.6157A2.3794,2.3794,0,0,1,268.8774,151.0263Z"/>
                <path class="ay" d="M268.7135,150.9318c0,.5805-.41.8143-.916.5222a2.0187,2.0187,0,0,1-.9162-1.58c0-.5806.41-.8144.9162-.5223A2.0185,2.0185,0,0,1,268.7135,150.9318Z"/>
                <path class="ba" d="M312.9236,180.8283c0,.6844-.4835.96-1.08.6157a2.38,2.38,0,0,1-1.08-1.8626c0-.6844.4835-5.3319,1.08-4.9877S312.9236,180.144,312.9236,180.8283Z"/>
                <path class="ay" d="M312.76,180.7337c0,.5806-.41.8144-.9162.5223a2.0183,2.0183,0,0,1-.916-1.58c0-.5806.41-.8144.916-.5223A2.0182,2.0182,0,0,1,312.76,180.7337Z"/>
                <path class="ba" d="M345.2987,195.1482c0,.6844-.4835.96-1.08.6157a2.38,2.38,0,0,1-1.08-1.8627c0-.6843.4835-.96,1.08-.6157A2.3794,2.3794,0,0,1,345.2987,195.1482Z"/>
                <path class="ay" d="M345.1348,195.0536c0,.5805-.41.8144-.9161.5223a2.0187,2.0187,0,0,1-.916-1.58c0-.5805.41-.8144.916-.5223A2.0186,2.0186,0,0,1,345.1348,195.0536Z"/>
                <polygon class="av" points="270.412 101.832 266.718 99.699 266.718 98.058 270.412 100.191 270.412 101.832"/>
                <polygon class="ay" points="270.084 101.352 267.045 99.597 267.045 98.384 270.084 100.139 270.084 101.352"/>
                <polygon class="av" points="316.454 128.414 312.76 126.282 312.76 124.641 316.454 126.774 316.454 128.414"/>
                <polygon class="ay" points="316.127 127.935 313.087 126.18 313.087 124.966 316.127 126.721 316.127 127.935"/>
                <polygon class="av" points="374.508 161.932 370.814 159.799 370.814 158.158 374.508 160.291 374.508 161.932"/>
                <polygon class="ay" points="374.181 161.452 371.141 159.697 371.141 158.484 374.181 160.239 374.181 161.452"/>
                <path class="av" d="M295.9253,145.2537a3.7014,3.7014,0,0,1-1.8335-.5466l-23.27-13.4364c-2.3841-1.3756-4.3225-5.0643-4.3225-8.2241V109.7683c0-1.7395.5891-3.0781,1.6177-3.6719a3.0236,3.0236,0,0,1,3.0873.2176l23.27,13.4356c2.3842,1.3756,4.3226,5.065,4.3226,8.2249V141.252c0,1.74-.5891,3.0788-1.6192,3.6725A2.47,2.47,0,0,1,295.9253,145.2537Zm-1.4511-1.21a2.2969,2.2969,0,0,0,2.3209.2174,3.3328,3.3328,0,0,0,1.2368-3.0094V127.9745c0-2.9162-1.7672-6.3081-3.94-7.5619l-23.27-13.4356a2.298,2.298,0,0,0-2.3208-.2174,3.3278,3.3278,0,0,0-1.2368,3.0087v13.2783c0,2.9154,1.7673,6.3072,3.94,7.561Z"/>
                <path class="av" d="M332.1372,166.16a3.6938,3.6938,0,0,1-1.8335-.5475L307.0316,152.177c-2.3841-1.3763-4.3225-5.0657-4.3225-8.224V130.6746c0-1.7395.5906-3.0788,1.6192-3.6725a3.0224,3.0224,0,0,1,3.0858.2182l23.272,13.4357c2.3826,1.3755,4.321,5.065,4.321,8.224v13.2784c0,1.74-.5891,3.0788-1.6192,3.6726A2.4743,2.4743,0,0,1,332.1372,166.16ZM305.582,127.4409a1.7157,1.7157,0,0,0-.87.2244,3.33,3.33,0,0,0-1.2383,3.0093V143.953c0,2.9146,1.7673,6.3064,3.94,7.5609l23.272,13.4357a2.3,2.3,0,0,0,2.3193.2182,3.3328,3.3328,0,0,0,1.2368-3.0094V148.88c0-2.9154-1.7672-6.3072-3.9385-7.5609l-23.2721-13.4357A2.9459,2.9459,0,0,0,305.582,127.4409Z"/>
                <path class="al" d="M366.633,192.2042l-12.79-11.7562a5.8747,5.8747,0,0,1-2.4527-4.6865V158.35c0-1.8061,1.0982-2.6363,2.4527-1.8542l12.79,7.3844a5.8739,5.8739,0,0,1,2.4527,4.6863V190.35C369.0857,192.1561,367.9876,192.9862,366.633,192.2042Z"/>
                <path class="aw" d="M352.1051,176.3071V158.63c0-1.28.7781-1.8679,1.7377-1.3138l12.79,7.3844a4.1616,4.1616,0,0,1,1.7378,3.32V190.07c0,1.28-.7781,1.8679-1.7379,1.3138l-12.79-11.7563A4.1621,4.1621,0,0,1,352.1051,176.3071Z"/>
                <path class="al" d="M357.7851,207.0539l-3.9423-2.2761c-1.3545-.782-2.4527-7.2521-2.4527-9.0583v-11.087c0-1.8063,1.0982-2.6364,2.4527-1.8543l3.9423,2.276a5.8741,5.8741,0,0,1,2.4528,4.6865V205.2C360.2379,207.0058,359.14,207.8361,357.7851,207.0539Z"/>
                <path class="aw" d="M352.1051,196.2651V184.9124c0-1.28.7781-1.8679,1.7377-1.3138l3.9423,2.276a4.1621,4.1621,0,0,1,1.7379,3.32V204.92c0,1.28-.7781,1.8678-1.7379,1.3137l-3.9423-2.2761C352.8832,203.4033,352.1051,197.5449,352.1051,196.2651Z"/>
                <path class="am" d="M377.8174,227.584a5.4257,5.4257,0,0,0,1.2021,2.13,1.0625,1.0625,0,0,1,.2982.8523h0c-.0707.2228-.3954.1572-.6937-.1927a8.6018,8.6018,0,0,1-1.5958-2.8276c-.1427-.4316-.0233-.73.2089-.6665h0A1.0976,1.0976,0,0,1,377.8174,227.584Z"/>
                <path class="am" d="M383.2665,227.4853a5.4285,5.4285,0,0,0-1.2021-2.13,1.0628,1.0628,0,0,1-.2983-.8524h0c.0707-.2227.3955-.1572.6938.1927a8.6058,8.6058,0,0,1,1.5958,2.8277c.1427.4317.0233.73-.209.6665h0A1.0972,1.0972,0,0,1,383.2665,227.4853Z"/>
                <path class="am" d="M381.9558,231.4774a1.1547,1.1547,0,0,0,1.2516-.6568c.1166-.1905.363-.2137.5926,0h0a.8028.8028,0,0,1,.1811.9006,1.7793,1.7793,0,0,1-1.6614.872.8424.8424,0,0,1-.6858-.6358h0C381.5726,231.6554,381.7266,231.4685,381.9558,231.4774Z"/>
                <path class="am" d="M379.128,223.5919a1.1546,1.1546,0,0,0-1.2514.6568c-.1167.19-.3632.2137-.5928,0h0a.8026.8026,0,0,1-.1811-.9,1.7794,1.7794,0,0,1,1.6614-.8721.8423.8423,0,0,1,.6859.6358h0C379.5112,223.4139,379.3572,223.6008,379.128,223.5919Z"/>
                <polygon class="bb" points="383.688 215.173 383.306 215.173 383.32 204.2 385.65 198.351 386.005 198.493 383.688 204.308 383.688 215.173"/>
                <polygon class="bb" points="398.892 217.478 384.521 201.475 384.805 201.219 399.176 217.222 398.892 217.478"/>
              </g>
              <polygon class="as" points="221.982 185.089 215.199 181.173 223.257 176.521 230.039 180.437 221.982 185.089"/>
              <g>
                <path class="bc" d="M357.5555,238.4151v17.4694l-7.46-4.3068a27.2038,27.2038,0,0,0-11.7137-15.1186c-7.0413-4.0654-8.0069.6661-11.9674,7.7214a16.0609,16.0609,0,0,0-.7758,1.97L266.33,211.9082q.02-1.1393.0191-2.4066c0-8.08-5.709-17.927-12.75-21.9923s-12.75-.81-12.75,7.2695q0,1.28.044,2.4431l-18.911-10.9184v-67.18l115.5547,66.7155,6.8125,36.5306Z"/>
                <path class="av" d="M227.4643,174.5934c0,.7977-.5635,1.119-1.2586.7177a2.7732,2.7732,0,0,1-1.2587-2.171c0-.7977.5635-1.1189,1.2587-.7176A2.7735,2.7735,0,0,1,227.4643,174.5934Z"/>
                <polygon class="av" points="305.218 214.101 222.69 166.453 222.69 164.06 223.749 162.848 305.218 211.708 306.276 212.888 305.218 214.101"/>
                <polygon class="bd" points="354.167 245.27 352.271 244.175 352.271 241.999 352.822 240.288 355.18 244.355 354.167 245.27"/>
                <ellipse class="al" cx="339.0626" cy="251.4828" rx="8.0501" ry="13.9439" transform="translate(-80.5712 205.4994) rotate(-30.3108)"/>
                <ellipse class="be" cx="339.0626" cy="251.4828" rx="8.0501" ry="13.9439" transform="translate(-80.5712 205.4994) rotate(-30.3108)"/>
                <path class="al" d="M348.336,257.079c0,6.03-4.26,8.4582-9.5142,5.4245s-9.5142-10.381-9.5142-16.4106,4.26-8.4582,9.5142-5.4244S348.336,251.05,348.336,257.079Z"/>
                <path class="be" d="M263.4893,207.8505c0,6.2681-4.428,8.7927-9.89,5.639s-9.89-10.7915-9.89-17.06,4.4281-8.7926,9.89-5.6389S263.4893,201.5825,263.4893,207.8505Z"/>
                <path class="al" d="M262.4961,207.7365c0,6.03-4.26,8.4582-9.5142,5.4245s-9.5143-10.381-9.5143-16.4107,4.26-8.4581,9.5143-5.4245S262.4961,201.7069,262.4961,207.7365Z"/>
                <ellipse class="am" cx="253.4154" cy="202.2778" rx="5.593" ry="9.6879" transform="translate(-67.446 155.5483) rotate(-30.3109)"/>
                <path class="bf" d="M259.8251,205.735c0,3.9458-2.7876,5.5351-6.2262,3.55a13.72,13.72,0,0,1-6.2262-10.7393c0-3.9458,2.7876-5.5351,6.2262-3.55A13.7193,13.7193,0,0,1,259.8251,205.735Z"/>
                <path class="bg" d="M259.2,205.3741c0,3.5486-2.5085,4.9782-5.6017,3.1922a12.3377,12.3377,0,0,1-5.6-9.6593c0-3.55,2.5069-4.98,5.6-3.1936a8.2974,8.2974,0,0,1,.8326.5517,12.8,12.8,0,0,1,4.7016,8.0743A8.286,8.286,0,0,1,259.2,205.3741Z"/>
                <path class="bh" d="M255.62,207.1227a11.6794,11.6794,0,0,1-5.3015-9.144,4.0977,4.0977,0,0,1,1.0433-3.0223c-1.98-.1522-3.3639,1.3133-3.3639,3.9506a12.3377,12.3377,0,0,0,5.6,9.6593c2.2536,1.3013,4.1954.8941,5.0843-.7943A4.2523,4.2523,0,0,1,255.62,207.1227Z"/>
                <g class="bi">
                  <path class="av" d="M258.8721,204.7492c0,2.1774-1.5384,3.0544-3.4358,1.9589A7.5709,7.5709,0,0,1,252,200.7818c0-2.1775,1.5383-3.0546,3.4359-1.959A7.5713,7.5713,0,0,1,258.8721,204.7492Z"/>
                </g>
                <path class="bj" d="M259.1325,204.3394c-.5889.8544-1.7075,1.0154-2.99.2751a7.5734,7.5734,0,0,1-3.4358-5.9263c0-1.4626.6935-2.3391,1.7242-2.4231A12.8,12.8,0,0,1,259.1325,204.3394Z"/>
                <polygon class="bj" points="253.599 196.553 251.023 198.045 256.099 206.287 258.64 204.82 256.905 200.676 253.599 196.553"/>
                <path class="bh" d="M257.0347,204.1239c0,2.1774-1.5382,3.0545-3.4358,1.9589a7.5706,7.5706,0,0,1-3.4359-5.9263c0-2.1773,1.5383-3.0544,3.4359-1.9588A7.57,7.57,0,0,1,257.0347,204.1239Z"/>
                <path class="bk" d="M256.7006,204.07c0,2.0819-1.4709,2.9205-3.2852,1.873a7.2387,7.2387,0,0,1-3.2852-5.6664c0-2.082,1.4708-2.9207,3.2852-1.8731A7.239,7.239,0,0,1,256.7006,204.07Z"/>
                <path class="am" d="M345.7508,255.5877c0,4.355-3.0765,6.109-6.8717,3.9179a15.1417,15.1417,0,0,1-6.8716-11.8526c0-4.3549,3.0765-6.109,6.8716-3.9179A15.1413,15.1413,0,0,1,345.7508,255.5877Z"/>
                <path class="bf" d="M345.2889,255.0775c0,3.9458-2.7876,5.5351-6.2262,3.55a13.719,13.719,0,0,1-6.2264-10.7393c0-3.9458,2.7876-5.5351,6.2264-3.55A13.72,13.72,0,0,1,345.2889,255.0775Z"/>
                <path class="bh" d="M344.51,254.628c0,3.4524-2.439,4.8429-5.4476,3.1059a12.0037,12.0037,0,0,1-5.4477-9.3964c0-3.4523,2.439-4.8429,5.4477-3.1059A12.0037,12.0037,0,0,1,344.51,254.628Z"/>
                <path class="bk" d="M343.8373,254.2394c0,3.026-2.1377,4.2449-4.7746,2.7223a10.5207,10.5207,0,0,1-4.7748-8.2356c0-3.026,2.1377-4.2448,4.7748-2.7223A10.5211,10.5211,0,0,1,343.8373,254.2394Z"/>
                <path class="bl" d="M341.5185,253.49c0,1.8086-1.2778,2.5372-2.8539,1.6272a6.2886,6.2886,0,0,1-2.8539-4.9226c0-1.8086,1.2777-2.5371,2.8539-1.627A6.2883,6.2883,0,0,1,341.5185,253.49Z"/>
                <path class="am" d="M336.338,251.5322a5.4281,5.4281,0,0,0,1.2021,2.13,1.0631,1.0631,0,0,1,.2983.8525h0c-.0706.2226-.3954.1572-.6937-.1928a8.6068,8.6068,0,0,1-1.5958-2.8277c-.1427-.4316-.0234-.73.2089-.6664h0A1.0972,1.0972,0,0,1,336.338,251.5322Z"/>
                <path class="bm" d="M340.8361,253.3119c0,1.5928-1.1252,2.2345-2.5134,1.433a5.5384,5.5384,0,0,1-2.5135-4.3354c0-1.5929,1.1253-2.2345,2.5135-1.4331A5.5383,5.5383,0,0,1,340.8361,253.3119Z"/>
                <path class="bh" d="M339.6881,252.649c0,.8654-.6113,1.2139-1.3654.7785a3.0087,3.0087,0,0,1-1.3655-2.3552c0-.8654.6113-1.2139,1.3655-.7785A3.0088,3.0088,0,0,1,339.6881,252.649Z"/>
                <polygon class="bn" points="359.38 262.793 352.17 261.997 348.833 260.071 348.058 252.103 352.413 254.617 359.38 257.006 359.38 262.793"/>
                <polygon class="at" points="336.769 183.299 222.935 117.577 221.982 119.124 337.536 185.839 336.769 183.299"/>
                <polygon class="as" points="305.501 210.942 222.974 163.295 223.749 162.848 306.276 210.495 305.501 210.942"/>
                <polygon class="bo" points="305.501 210.942 305.501 213.335 306.276 212.888 306.276 210.495 305.501 210.942"/>
                <polygon class="av" points="307.389 233.196 307.389 179.915 331.181 193.652 331.181 227.654 323.356 242.415 307.389 233.196"/>
                <polygon class="al" points="338.053 193.248 332.691 190.152 332.691 220.504 340.635 225.09 342.88 221.434 338.053 193.248"/>
                <polygon class="bp" points="333.406 220.096 333.406 191.385 337.502 193.75 342.118 220.896 340.201 224.019 333.406 220.096"/>
                <polygon class="bn" points="221.982 185.089 215.199 181.173 215.199 182.388 221.982 186.303 221.982 185.089"/>
                <polygon class="am" points="355.421 244.771 352.581 243.132 352.581 239.873 355.421 241.512 355.421 244.771"/>
                <polygon class="ay" points="355.18 244.355 352.06 241.259 352.822 240.288 355.18 241.65 355.18 244.355"/>
                <polygon class="bq" points="353.957 244.53 352.06 243.435 352.06 241.259 353.957 242.354 353.957 244.53"/>
                <path class="am" d="M228.0861,173.5647c0,1.007-.7116,1.4127-1.5892.906a3.5017,3.5017,0,0,1-1.5892-2.741c0-1.0071.7115-1.4128,1.5892-.906A3.5018,3.5018,0,0,1,228.0861,173.5647Z"/>
                <path class="br" d="M227.7555,173.3739c0,.7976-.5635,1.1189-1.2586.7176a2.7737,2.7737,0,0,1-1.2586-2.171c0-.7976.5635-1.119,1.2586-.7176A2.7734,2.7734,0,0,1,227.7555,173.3739Z"/>
                <path class="br" d="M225.5152,171.1771a4.5185,4.5185,0,0,0-.6885.8752c-.1177.2921,1.3424,2.3372,1.3424,2.3372a3.2316,3.2316,0,0,0,1.2014-.1988C227.8289,173.9724,225.5152,171.1771,225.5152,171.1771Z"/>
                <path class="bd" d="M227.516,179.7892c0,.6843-.4835.96-1.08.6156a2.38,2.38,0,0,1-1.08-1.8626c0-.6843.4835-.96,1.08-.6158A2.38,2.38,0,0,1,227.516,179.7892Z"/>
                <path class="bd" d="M271.5623,205.2193c0,.6843-.4835.96-1.08.6156a2.3794,2.3794,0,0,1-1.08-1.8626c0-.6844.4835-.96,1.08-.6157A2.38,2.38,0,0,1,271.5623,205.2193Z"/>
                <path class="bd" d="M303.9374,223.911c0,.6844-.4835.96-1.08.6157a2.3794,2.3794,0,0,1-1.08-1.8627c0-.6843.4835-.96,1.08-.6156A2.38,2.38,0,0,1,303.9374,223.911Z"/>
                <path class="az" d="M226.67,173.69c0,.627-.4429.8794-.9893.564a2.18,2.18,0,0,1-.9892-1.7063c0-.627.4429-.8794.9892-.564A2.18,2.18,0,0,1,226.67,173.69Z"/>
                <path class="bs" d="M227.6332,179.2431c0,.6844-.4835.96-1.08.6158a2.38,2.38,0,0,1-1.08-1.8628c0-.6843.4835-.96,1.08-.6156A2.3794,2.3794,0,0,1,227.6332,179.2431Z"/>
                <path class="bs" d="M271.6793,204.6732c0,.6844-.4835.96-1.08.6158a2.38,2.38,0,0,1-1.08-1.8627c0-.6844.4835-.96,1.08-.6158A2.38,2.38,0,0,1,271.6793,204.6732Z"/>
                <path class="bs" d="M304.0544,223.3649c0,.6845-.4835.96-1.08.6158a2.38,2.38,0,0,1-1.08-1.8626c0-.6845.4835-.96,1.08-.6158A2.38,2.38,0,0,1,304.0544,223.3649Z"/>
                <path class="ba" d="M227.398,179.3463c0,.6844-.4835.96-1.08.6157a2.3794,2.3794,0,0,1-1.08-1.8627c0-.6843.4834-.96,1.08-.6156A2.38,2.38,0,0,1,227.398,179.3463Z"/>
                <path class="bq" d="M227.2342,179.2517c0,.5806-.41.8143-.9161.5222a2.0182,2.0182,0,0,1-.916-1.58c0-.5805.41-.8143.916-.5222A2.0186,2.0186,0,0,1,227.2342,179.2517Z"/>
                <path class="ba" d="M271.4443,204.7764c0,.6845-.4835.96-1.08.6158a2.38,2.38,0,0,1-1.08-1.8628c0-.6843.4835-.96,1.08-.6156A2.3794,2.3794,0,0,1,271.4443,204.7764Z"/>
                <path class="bq" d="M271.28,204.6818c0,.5806-.41.8144-.916.5223a2.0185,2.0185,0,0,1-.916-1.58c0-.5805.41-.8143.916-.5222A2.0185,2.0185,0,0,1,271.28,204.6818Z"/>
                <path class="ba" d="M303.8193,223.4681c0,.6845-.4835.96-1.08.6158a2.38,2.38,0,0,1-1.08-1.8628c0-.6843.4835-.96,1.08-.6156A2.38,2.38,0,0,1,303.8193,223.4681Z"/>
                <path class="bq" d="M303.6555,223.3735c0,.5806-.41.8145-.916.5224a2.0185,2.0185,0,0,1-.9162-1.58c0-.5805.41-.8144.9162-.5223A2.0185,2.0185,0,0,1,303.6555,223.3735Z"/>
                <polygon class="av" points="228.932 125.78 225.238 123.647 225.238 122.006 228.932 124.139 228.932 125.78"/>
                <polygon class="bq" points="228.605 125.301 225.565 123.545 225.565 122.332 228.605 124.087 228.605 125.301"/>
                <polygon class="av" points="274.974 152.362 271.28 150.23 271.28 148.589 274.974 150.722 274.974 152.362"/>
                <polygon class="bq" points="274.647 151.883 271.608 150.128 271.608 148.914 274.647 150.669 274.647 151.883"/>
                <polygon class="av" points="333.028 185.88 329.334 183.747 329.334 182.106 333.028 184.239 333.028 185.88"/>
                <polygon class="bq" points="332.701 185.4 329.661 183.645 329.661 182.432 332.701 184.187 332.701 185.4"/>
                <path class="al" d="M325.1537,216.1522l-12.79-7.3843a5.874,5.874,0,0,1-2.4528-4.6864V186.67c0-1.8062,1.0981-2.6363,2.4528-1.8542l12.79,7.3843a5.8741,5.8741,0,0,1,2.4527,4.6865V214.298C327.6064,216.1041,326.5083,216.9344,325.1537,216.1522Z"/>
                <path class="bp" d="M310.6258,204.6271V186.95c0-1.28.778-1.8678,1.7378-1.3138l12.79,7.3844a4.1622,4.1622,0,0,1,1.7377,3.32v17.677c0,1.28-.778,1.8678-1.7377,1.3137l-12.79-7.3844A4.1613,4.1613,0,0,1,310.6258,204.6271Z"/>
                <path class="al" d="M316.3059,231.002l-3.9423-2.276a5.8741,5.8741,0,0,1-2.4528-4.6865V212.9524c0-1.8062,1.0981-2.6364,2.4528-1.8543l3.9423,2.2761a5.8741,5.8741,0,0,1,2.4527,4.6864v11.0871C318.7586,230.954,317.6605,231.7841,316.3059,231.002Z"/>
                <path class="bp" d="M310.6258,224.5851V213.2323c0-1.28.778-1.8679,1.7378-1.3138l3.9423,2.2762a4.1618,4.1618,0,0,1,1.7377,3.32v11.3528c0,1.28-.7781,1.8679-1.7377,1.3138l-3.9423-2.2761A4.1617,4.1617,0,0,1,310.6258,224.5851Z"/>
                <path class="am" d="M341.7872,251.4333a5.428,5.428,0,0,0-1.2021-2.13,1.0622,1.0622,0,0,1-.2982-.8523h0c.07-.2228.3953-.1572.6936.1927a8.6058,8.6058,0,0,1,1.5958,2.8277c.1427.4316.0234.73-.2089.6664h0A1.0975,1.0975,0,0,1,341.7872,251.4333Z"/>
                <path class="am" d="M340.4766,255.4256a1.1547,1.1547,0,0,0,1.2514-.6569c.1166-.1906.3631-.2136.5927,0h0a.8024.8024,0,0,1,.1811.9,1.7791,1.7791,0,0,1-1.6613.872.8422.8422,0,0,1-.6859-.6357h0C340.0933,255.6035,340.2473,255.4167,340.4766,255.4256Z"/>
                <path class="am" d="M337.6487,247.54a1.1547,1.1547,0,0,0-1.2515.6569c-.1166.1905-.3631.2136-.5927,0h0a.8028.8028,0,0,1-.1811-.9006,1.779,1.779,0,0,1,1.6613-.8719.8422.8422,0,0,1,.6859.6357h0C338.0319,247.362,337.878,247.5489,337.6487,247.54Z"/>
                <path class="bh" d="M337.3623,254.0318a8.6061,8.6061,0,0,1-1.5959-2.8277.99.99,0,0,1-.0519-.3714c-.2-.0121-.2981.2611-.1657.6615a8.6088,8.6088,0,0,0,1.596,2.8278c.2982.35.6229.4151.6935.1927.0148-.047-.0131-.1156-.0162-.1727A.8378.8378,0,0,1,337.3623,254.0318Z"/>
                <path class="bh" d="M342.5851,251.8477a1.0976,1.0976,0,0,1-.58-.7045,5.43,5.43,0,0,0-1.2022-2.13,1.18,1.18,0,0,1-.2822-.68.1849.1849,0,0,0-.2336.1171,1.0625,1.0625,0,0,0,.2982.8525,5.4294,5.4294,0,0,1,1.2022,2.13,1.0979,1.0979,0,0,0,.58.7045c.1542.0424.25-.0846.2608-.295C342.6129,251.842,342.6017,251.8523,342.5851,251.8477Z"/>
                <path class="bh" d="M341.058,256.2511a.8422.8422,0,0,1-.6857-.6358c-.0132-.0645.0169-.0989.0221-.1522a.3351.3351,0,0,0-.24.4424.8425.8425,0,0,0,.6858.6358,1.78,1.78,0,0,0,1.6613-.8719c.0032-.0056.0029-.0132.0058-.0189A1.7862,1.7862,0,0,1,341.058,256.2511Z"/>
                <g>
                  <path class="bh" d="M336.0222,247.9068a.8069.8069,0,0,1-.1871-.8821,1.5746,1.5746,0,0,0-.2116.2716.8027.8027,0,0,0,.181.9006c.23.2137.476.19.5927,0a2.1871,2.1871,0,0,1,.1979-.2706C336.4728,248.0941,336.2414,248.1107,336.0222,247.9068Z"/>
                  <path class="bh" d="M337.8663,247.25a1.1428,1.1428,0,0,0-1.2137.6056,1.1478,1.1478,0,0,1,.9961-.3154c.18.0072.2806-.1319.3-.3276C337.9177,247.22,337.901,247.2509,337.8663,247.25Z"/>
                </g>
                <polygon class="bb" points="342.209 239.121 341.826 239.121 341.84 228.148 344.172 222.299 344.527 222.441 342.209 228.256 342.209 239.121"/>
                <polygon class="bb" points="357.414 241.425 343.042 225.423 343.325 225.167 357.698 241.169 357.414 241.425"/>
              </g>
              <polygon class="ak" points="399.035 214.467 357.556 238.415 357.556 255.884 399.035 231.936 399.035 214.467"/>
              <polygon class="bt" points="390.064 220.543 366.526 234.133 366.526 251.375 390.064 237.785 390.064 220.543"/>
              <polygon class="bo" points="388.872 223.38 367.719 235.592 367.719 239.888 388.872 227.675 388.872 223.38"/>
              <polygon class="bo" points="388.872 231.009 367.719 243.222 367.719 249.549 388.872 237.336 388.872 231.009"/>
              <polygon class="av" points="387.642 226.965 367.719 238.468 367.719 239.888 388.872 227.675 388.872 223.38 387.642 224.089 387.642 226.965"/>
              <polygon class="av" points="387.642 231.719 387.642 236.626 367.719 248.129 367.719 249.549 388.872 237.336 388.872 231.009 387.642 231.719"/>
              <polygon class="at" points="357.556 238.415 399.035 214.467 385.828 198.422 344.349 222.37 357.556 238.415"/>
              <polygon class="bu" points="344.349 222.37 357.657 237.627 365.45 233.406 398.466 214.241 385.828 198.422 399.035 214.467 357.556 238.415 344.349 222.37"/>
              <polygon class="at" points="366.526 234.133 390.064 220.543 381.722 210.779 358.184 224.368 366.526 234.133"/>
              <polygon class="bt" points="337.536 185.839 379.015 161.891 385.828 198.422 344.349 222.37 337.536 185.839"/>
              <polygon class="bo" points="365.49 207.92 365.64 208.628 344.949 220.574 340.068 192.524 360.639 180.647 360.789 181.355 365.49 207.92"/>
              <polygon class="bv" points="364.863 208.282 357.342 212.624 345.43 219.502 344.349 213.224 340.971 193.616 340.843 192.871 352.343 186.23 360.162 181.717 363.19 198.823 363.807 202.308 364.863 208.282"/>
              <polygon class="bo" points="384.662 197.645 366.41 208.183 366.26 207.475 361.559 180.911 361.409 180.202 379.783 169.594 384.662 197.645"/>
              <polygon class="bv" points="383.887 197.297 377.656 200.895 369.187 205.786 366.887 207.113 365.998 202.084 365.836 201.169 362.718 183.553 362.186 180.547 372.783 174.43 379.301 170.667 381.741 184.83 383.649 195.912 383.887 197.297"/>
              <polygon class="bw" points="383.597 196.948 383.106 197.748 380.381 199.321 374.884 196.148 374.884 173.216 379.143 170.758 383.597 196.948"/>
              <polygon class="at" points="337.536 185.839 379.015 161.891 378.248 159.351 336.769 183.299 337.536 185.839"/>
              <polygon class="bx" points="378.248 159.351 264.414 93.629 222.935 117.577 336.769 183.299 378.248 159.351"/>
              <polygon class="bo" points="401.048 232.949 359.38 257.006 359.38 262.793 401.048 238.736 401.048 232.949"/>
              <polygon class="by" points="355.18 241.65 353.957 242.354 353.957 244.53 355.18 244.355 355.18 241.65"/>
              <polygon class="bc" points="365.702 233.712 365.702 251.181 366.526 251.375 366.526 234.133 365.702 233.712"/>
              <polygon class="bn" points="305.501 213.335 222.974 165.688 222.974 163.295 305.501 210.942 305.501 213.335"/>
              <g>
                <polygon class="bd" points="390.727 234.964 396.402 231.687 391.21 232.469 390.727 233.25 390.727 234.964"/>
                <path class="bd" d="M391.112,220.7177l4.38-2.0692c.43-.248.7778-.05.7778.4433v9.134a1.7135,1.7135,0,0,1-.7778,1.3414l-4.38,2.5286c-.43.248-.7776.0494-.7776-.4434v-9.134A2.7008,2.7008,0,0,1,391.112,220.7177Z"/>
                <path class="be" d="M396.83,218.007l-.4441-.26-.01-.0055-.0034-.002,0,0a.5543.5543,0,0,0-.5419.06l-4.38,2.5286a1.7138,1.7138,0,0,0-.7776,1.3414v9.134a.5564.5564,0,0,0,.2015.4814h0l.0009.0005a.3744.3744,0,0,0,.053.03l.4308.2461.1379-.3417,4.3333-2.502a1.7134,1.7134,0,0,0,.7777-1.3413v-8.8207Z"/>
                <g>
                  <path class="bz" d="M391.8579,220.5629l4.38-2.5286c.43-.248.7777-.05.7777.4433v9.134a1.7135,1.7135,0,0,1-.7777,1.3414l-4.38,2.5286c-.4295.248-.7777.0494-.7777-.4435v-9.134A1.7133,1.7133,0,0,1,391.8579,220.5629Z"/>
                  <path class="ca" d="M392.0781,221.094l3.9391-2.2742c.2916-.1684.528-.0353.528.2972v8.3979a1.16,1.16,0,0,1-.528.9069l-3.9391,2.2742c-.2915.1684-.5279.0352-.5279-.2973v-8.3978A1.16,1.16,0,0,1,392.0781,221.094Z"/>
                  <polygon class="ca" points="397.337 219.547 396.424 218.803 391.744 230.753 392.853 230.984 397.337 219.547"/>
                  <path class="at" d="M393.1651,221.7316l3.7725-2.1781c.2793-.1612.5056-.0338.5056.2847v8.0427a1.11,1.11,0,0,1-.5056.8685l-3.7725,2.1781c-.2793.1613-.5057.0338-.5057-.2847V222.6A1.1107,1.1107,0,0,1,393.1651,221.7316Z"/>
                  <path class="cb" d="M392.2729,221.3847l3.7724-2.178c.2794-.1613.5057-.0338.5057.2847v8.0427a1.11,1.11,0,0,1-.5057.8685l-3.7724,2.1781c-.2793.1612-.5057.0337-.5057-.2847v-8.0427A1.1107,1.1107,0,0,1,392.2729,221.3847Z"/>
                </g>
                <polygon class="by" points="391.914 234.589 397.589 231.312 397.589 229.599 391.914 232.875 391.914 234.589"/>
                <polygon class="ay" points="391.914 232.875 391.21 232.469 396.885 229.192 397.589 229.599 391.914 232.875"/>
                <polygon class="bq" points="391.914 232.875 391.21 232.469 391.21 234.182 391.914 234.589 391.914 232.875"/>
              </g>
              <g>
                <polygon class="bd" points="358.84 253.407 364.515 250.13 359.323 250.912 358.84 251.693 358.84 253.407"/>
                <path class="bd" d="M359.2248,239.16l4.38-2.0691c.43-.248.7776-.05.7776.4433v9.134a1.7137,1.7137,0,0,1-.7776,1.3414l-4.38,2.5286c-.43.248-.7778.0494-.7778-.4435v-9.134A2.7012,2.7012,0,0,1,359.2248,239.16Z"/>
                <path class="be" d="M364.9428,236.45l-.4441-.26-.01-.0056-.0034-.0019,0,0a.5546.5546,0,0,0-.5419.06l-4.38,2.5286a1.7135,1.7135,0,0,0-.7776,1.3414v9.134a.5568.5568,0,0,0,.2014.4814h0l.0007,0a.3785.3785,0,0,0,.0532.03l.4308.246.1379-.3417,4.3333-2.5019a1.7135,1.7135,0,0,0,.7777-1.3414v-8.8207Z"/>
                <g>
                  <path class="bz" d="M359.9707,239.0056l4.3795-2.5286c.43-.248.7777-.0495.7777.4433v9.134a1.7136,1.7136,0,0,1-.7777,1.3414l-4.3795,2.5286c-.43.248-.7778.0494-.7778-.4434v-9.134A1.7133,1.7133,0,0,1,359.9707,239.0056Z"/>
                  <path class="ca" d="M360.1909,239.5368l3.9391-2.2743c.2916-.1683.5279-.0353.5279.2972v8.398a1.16,1.16,0,0,1-.5279.9068l-3.9391,2.2742c-.2916.1684-.528.0353-.528-.2972v-8.3978A1.16,1.16,0,0,1,360.1909,239.5368Z"/>
                  <polygon class="ca" points="365.45 237.99 364.537 237.246 359.856 249.196 360.966 249.427 365.45 237.99"/>
                  <path class="at" d="M361.2777,240.1743l3.7726-2.178c.2792-.1613.5057-.0339.5057.2847v8.0427a1.1106,1.1106,0,0,1-.5057.8684l-3.7726,2.1782c-.2792.1612-.5056.0337-.5056-.2847v-8.0427A1.111,1.111,0,0,1,361.2777,240.1743Z"/>
                </g>
                <polygon class="by" points="360.027 253.032 365.702 249.755 365.702 248.042 360.027 251.318 360.027 253.032"/>
                <polygon class="cc" points="391.329 234.268 397.004 230.991 397.004 229.278 391.329 232.554 391.329 234.268"/>
                <polygon class="cc" points="359.442 252.711 365.117 249.434 365.117 247.72 359.442 250.997 359.442 252.711"/>
                <polygon class="ay" points="360.027 251.318 359.323 250.912 364.998 247.635 365.702 248.042 360.027 251.318"/>
                <polygon class="bq" points="360.027 251.318 359.323 250.912 359.323 252.625 360.027 253.032 360.027 251.318"/>
              </g>
              <polygon class="ax" points="308.628 232.481 308.628 180.631 307.389 179.915 307.389 233.196 323.356 242.415 323.937 241.319 308.628 232.481"/>
              <polygon class="cd" points="363.807 202.308 364.863 208.282 345.43 219.502 344.349 213.224 363.807 202.308"/>
              <polygon class="cd" points="383.887 197.297 366.887 207.113 365.836 201.169 377.68 194.525 383.649 195.912 383.887 197.297"/>
              <polygon class="at" points="308.628 232.481 307.389 233.196 323.356 242.415 323.937 241.319 308.628 232.481"/>
              <g>
                <polygon class="bn" points="322.578 246.703 303.215 235.524 303.215 236.739 322.578 247.918 322.578 246.703"/>
                <polygon class="bo" points="322.578 246.703 325.639 244.935 325.639 246.15 322.578 247.918 322.578 246.703"/>
                <polygon class="as" points="322.578 246.703 325.639 244.935 306.276 233.756 303.215 235.524 322.578 246.703"/>
              </g>
              <path class="cb" d="M360.3619,239.6917l3.7726-2.178c.2792-.1613.5057-.0338.5057.2847v8.0427a1.1109,1.1109,0,0,1-.5057.8685l-3.7726,2.1781c-.2792.1612-.5056.0337-.5056-.2847V240.56A1.1108,1.1108,0,0,1,360.3619,239.6917Z"/>
              <polygon class="ce" points="308.628 180.631 308.628 181.717 329.661 194.097 329.661 227.535 322.907 240.725 323.937 241.319 331.181 227.654 331.181 193.652 308.628 180.631"/>
            </g>
            <polygon class="bc" points="365.702 233.712 354.597 220.207 366.526 234.133 365.702 233.712"/>
            <polygon class="at" points="387.642 226.965 388.872 227.675 367.719 239.888 367.719 238.468 387.642 226.965"/>
            <polygon class="at" points="387.642 236.626 388.872 237.336 367.719 249.549 367.719 248.129 387.642 236.626"/>
            <polygon class="cf" points="360.162 181.717 360.947 186.157 357.678 183.151 360.162 181.717"/>
            <path class="cf" d="M368.3706,176.9769v13.0937c0,1.28-.7774,1.8672-1.7378,1.3126l-3.02-2.7767-1.4269-8.059Z"/>
            <polygon class="bw" points="360.947 186.157 357.678 183.151 360.162 181.717 360.947 186.157"/>
            <path class="bw" d="M362.1856,180.5475l6.185-3.5706v13.0937c0,1.28-.7774,1.8672-1.7378,1.3126l-3.02-2.7767Z"/>
            <g>
              <g>
                <polygon class="bt" points="336.325 180.954 225.664 116.972 226.439 116.525 336.594 180.954 336.325 180.954"/>
                <polygon class="bx" points="336.594 180.699 225.933 116.718 226.707 116.27 337.368 180.252 336.594 180.699"/>
                <polygon class="bt" points="336.594 180.699 336.594 180.954 337.368 180.506 337.368 180.252 336.594 180.699"/>
                <polygon class="av" points="336.594 180.954 225.933 116.972 225.933 116.718 336.594 180.699 336.594 180.954"/>
              </g>
              <g>
                <polygon class="bt" points="341.417 178.014 230.756 114.032 231.531 113.585 341.686 178.014 341.417 178.014"/>
                <polygon class="bx" points="341.686 177.759 231.025 113.778 231.8 113.33 342.461 177.312 341.686 177.759"/>
                <polygon class="bt" points="341.686 177.759 341.686 178.014 342.461 177.566 342.461 177.312 341.686 177.759"/>
                <polygon class="av" points="341.686 178.014 231.025 114.032 231.025 113.778 341.686 177.759 341.686 178.014"/>
              </g>
              <g>
                <polygon class="bt" points="346.51 175.073 235.849 111.092 236.624 110.644 346.778 175.073 346.51 175.073"/>
                <polygon class="bx" points="346.778 174.819 236.117 110.838 236.892 110.39 347.553 174.372 346.778 174.819"/>
                <polygon class="bt" points="346.778 174.819 346.778 175.073 347.553 174.626 347.553 174.372 346.778 174.819"/>
                <polygon class="av" points="346.778 175.073 236.117 111.092 236.117 110.838 346.778 174.819 346.778 175.073"/>
              </g>
              <g>
                <polygon class="bt" points="351.602 172.133 240.941 108.152 241.716 107.704 351.871 172.133 351.602 172.133"/>
                <polygon class="bx" points="351.871 171.879 241.21 107.898 241.985 107.45 352.646 171.432 351.871 171.879"/>
                <polygon class="bt" points="351.871 171.879 351.871 172.133 352.646 171.686 352.646 171.432 351.871 171.879"/>
                <polygon class="av" points="351.871 172.133 241.21 108.152 241.21 107.898 351.871 171.879 351.871 172.133"/>
              </g>
              <g>
                <polygon class="bt" points="356.694 169.193 246.033 105.212 246.808 104.764 356.963 169.193 356.694 169.193"/>
                <polygon class="bx" points="356.963 168.939 246.302 104.957 247.077 104.51 357.738 168.492 356.963 168.939"/>
                <polygon class="bt" points="356.963 168.939 356.963 169.193 357.738 168.746 357.738 168.492 356.963 168.939"/>
                <polygon class="av" points="356.963 169.193 246.302 105.212 246.302 104.957 356.963 168.939 356.963 169.193"/>
              </g>
              <g>
                <polygon class="bt" points="361.787 166.253 251.126 102.272 251.901 101.824 362.056 166.253 361.787 166.253"/>
                <polygon class="bx" points="362.056 165.999 251.395 102.017 252.17 101.57 362.831 165.551 362.056 165.999"/>
                <polygon class="bt" points="362.056 165.999 362.056 166.253 362.831 165.806 362.831 165.551 362.056 165.999"/>
                <polygon class="av" points="362.056 166.253 251.395 102.272 251.395 102.017 362.056 165.999 362.056 166.253"/>
              </g>
              <g>
                <polygon class="bt" points="366.879 163.313 256.218 99.331 256.993 98.884 367.148 163.313 366.879 163.313"/>
                <polygon class="bx" points="367.148 163.059 256.487 99.077 257.262 98.63 367.923 162.611 367.148 163.059"/>
                <polygon class="bt" points="367.148 163.059 367.148 163.313 367.923 162.865 367.923 162.611 367.148 163.059"/>
                <polygon class="av" points="367.148 163.313 256.487 99.331 256.487 99.077 367.148 163.059 367.148 163.313"/>
              </g>
              <g>
                <polygon class="bt" points="371.972 160.373 261.311 96.391 262.086 95.944 372.24 160.373 371.972 160.373"/>
                <polygon class="bx" points="372.24 160.119 261.58 96.137 262.354 95.69 373.015 159.671 372.24 160.119"/>
                <polygon class="bt" points="372.24 160.119 372.24 160.373 373.015 159.925 373.015 159.671 372.24 160.119"/>
                <polygon class="av" points="372.24 160.373 261.58 96.391 261.58 96.137 372.24 160.119 372.24 160.373"/>
              </g>
            </g>
            <g>
              <g>
                <polygon class="bt" points="347.111 176.115 345.286 175.071 346.729 174.212 348.148 176.115 347.111 176.115"/>
                <polygon class="by" points="348.148 176.115 349.591 175.256 349.591 174.541 348.148 175.4 348.148 176.115"/>
                <polygon class="ay" points="348.148 175.4 346.322 174.356 347.765 173.497 349.591 174.541 348.148 175.4"/>
                <polygon class="bq" points="348.148 175.4 346.322 174.356 346.322 175.071 348.148 176.115 348.148 175.4"/>
              </g>
              <g>
                <polygon class="bt" points="354.325 171.822 352.5 170.778 353.943 169.919 355.362 171.822 354.325 171.822"/>
                <polygon class="by" points="355.362 171.822 356.805 170.963 356.805 170.248 355.362 171.107 355.362 171.822"/>
                <polygon class="ay" points="355.362 171.107 353.537 170.062 354.979 169.204 356.805 170.248 355.362 171.107"/>
                <polygon class="bq" points="355.362 171.107 353.537 170.062 353.537 170.778 355.362 171.822 355.362 171.107"/>
              </g>
              <g>
                <polygon class="bt" points="361.539 167.529 359.714 166.485 361.157 165.626 362.576 167.529 361.539 167.529"/>
                <polygon class="by" points="362.576 167.529 364.019 166.67 364.019 165.955 362.576 166.814 362.576 167.529"/>
                <polygon class="ay" points="362.576 166.814 360.751 165.769 362.194 164.911 364.019 165.955 362.576 166.814"/>
                <polygon class="bq" points="362.576 166.814 360.751 165.769 360.751 166.485 362.576 167.529 362.576 166.814"/>
              </g>
            </g>
            <polygon class="av" points="358.033 218.729 367.496 213.265 365.66 211.019 356.197 216.483 358.033 218.729"/>
            <polygon class="av" points="371.247 211.05 380.71 205.586 378.875 203.34 369.411 208.804 371.247 211.05"/>
            <path class="bn" d="M362.0445,211.7114a.425.425,0,0,0,.6813-.0826.6945.6945,0,0,0-.0613-.8392.4249.4249,0,0,0-.6812.0825A.6945.6945,0,0,0,362.0445,211.7114Z"/>
            <path class="bn" d="M362.0839,211.6528a.3711.3711,0,0,0,.5947-.0721.6063.6063,0,0,0-.0535-.7326.3651.3651,0,0,0-.5571.023.4956.4956,0,0,0-.0375.0491A.6063.6063,0,0,0,362.0839,211.6528Z"/>
            <path class="bn" d="M362.3629,210.73a2.3142,2.3142,0,0,1,.4336.071c.106.0448.0618.7863.0618.7863a1.7459,1.7459,0,0,1-.4584.18C362.193,211.8034,362.3629,210.73,362.3629,210.73Z"/>
            <path class="cg" d="M362.5288,211.5213a.2915.2915,0,0,0,.4673-.0566.4763.4763,0,0,0-.042-.5757.2916.2916,0,0,0-.4674.0566A.4764.4764,0,0,0,362.5288,211.5213Z"/>
            <polygon class="ch" points="363.807 202.308 364.863 208.282 357.342 212.624 340.971 193.616 340.843 192.871 352.343 186.23 363.19 198.823 363.807 202.308"/>
            <polygon class="ch" points="369.187 205.786 366.887 207.113 365.998 202.084 369.187 205.786"/>
            <polygon class="ch" points="383.887 197.297 377.656 200.895 362.718 183.553 362.186 180.547 372.783 174.43 381.741 184.83 383.649 195.912 383.887 197.297"/>
            <polygon class="bn" points="371.736 252.491 369.095 254.016 369.095 252.843 371.736 251.318 371.736 252.491"/>
            <polygon class="bq" points="371.502 252.418 369.329 253.673 369.329 252.806 371.502 251.55 371.502 252.418"/>
            <polygon class="bq" points="390.537 241.135 388.363 242.39 388.363 241.523 390.537 240.268 390.537 241.135"/>
            <polygon class="bn" points="357.905 211.506 357.308 212.071 362.332 211.561 362.277 210.852 357.905 211.506"/>
            <path class="cg" d="M362.704,209.4187c-.0514.0053-14.2424,7.3669-14.2424,7.3669l-.1521-.4489,13.8285-7.4784Z"/>
          </g>
          <g>
            <path class="ci" d="M290.673,195.6831a4.1421,4.1421,0,0,1-2.0572-.6076l-23.27-13.4356c-2.5475-1.47-4.5431-5.2517-4.5431-8.6081V159.7542c0-1.9021.6709-3.381,1.84-4.0557a3.4441,3.4441,0,0,1,3.53.2174l23.27,13.4357c2.5476,1.4711,4.5431,5.2524,4.5431,8.608V191.238c0,1.9021-.6708,3.38-1.84,4.0549A2.9069,2.9069,0,0,1,290.673,195.6831Zm-1.2307-2.0372a1.9209,1.9209,0,0,0,1.8783.2176,2.9723,2.9723,0,0,0,1.0148-2.6255V177.96c0-2.7272-1.7041-6.0142-3.72-7.1785l-23.27-13.4356a1.9231,1.9231,0,0,0-1.8783-.2175,2.9727,2.9727,0,0,0-1.0147,2.6262v13.2776c0,2.728,1.7041,6.015,3.72,7.1785Z"/>
            <path class="cj" d="M290.6575,194.9236a4.1244,4.1244,0,0,1-2.0556-.6076L265.33,180.88c-2.5476-1.4712-4.543-5.2524-4.543-8.6081V158.9948c0-1.9022.6707-3.3811,1.8413-4.0566a3.4451,3.4451,0,0,1,3.5283.2183l23.272,13.4364c2.5475,1.4711,4.543,5.2516,4.543,8.6073v13.2783c0,1.9022-.6708,3.38-1.84,4.0557A2.9233,2.9233,0,0,1,290.6575,194.9236ZM264.1054,156.2a1.2835,1.2835,0,0,0-.6522.1689,2.9731,2.9731,0,0,0-1.0163,2.6263v13.2775c0,2.7273,1.704,6.0143,3.72,7.1785l23.272,13.4357a1.9154,1.9154,0,0,0,1.8767.2174,2.9725,2.9725,0,0,0,1.0163-2.6254V177.2c0-2.7265-1.7041-6.0135-3.72-7.1778L265.33,156.586A2.5645,2.5645,0,0,0,264.1054,156.2Z"/>
          </g>
          <g>
            <path class="ci" d="M254.4626,174.7775a4.1435,4.1435,0,0,1-2.0571-.6084l-23.27-13.4356c-2.5475-1.47-4.5431-5.2509-4.5431-8.6073V138.8479c0-1.9023.6709-3.38,1.84-4.0558a3.4423,3.4423,0,0,1,3.53.2182L253.232,148.446c2.5476,1.47,4.5431,5.2509,4.5431,8.6072v13.2784c0,1.9022-.6709,3.38-1.84,4.0557A2.91,2.91,0,0,1,254.4626,174.7775ZM253.232,172.74a1.9137,1.9137,0,0,0,1.8768.2182,2.9691,2.9691,0,0,0,1.0163-2.6262V157.0532c0-2.7272-1.7041-6.0142-3.72-7.1778L229.135,136.44a1.92,1.92,0,0,0-1.8768-.2182,2.9692,2.9692,0,0,0-1.0162,2.6263v13.2783c0,2.7272,1.7041,6.0143,3.72,7.1777Z"/>
            <path class="cj" d="M254.4472,174.018a4.1338,4.1338,0,0,1-2.0556-.6083L229.12,159.974c-2.5476-1.4712-4.543-5.2517-4.543-8.6073V138.0884c0-1.9023.6707-3.38,1.84-4.0558a3.4482,3.4482,0,0,1,3.53.2182l23.272,13.4356c2.5475,1.4713,4.543,5.2525,4.543,8.6081V169.572c0,1.9023-.6708,3.38-1.8412,4.0559A2.9078,2.9078,0,0,1,254.4472,174.018Zm-26.5521-38.7239a1.2834,1.2834,0,0,0-.6522.1688,2.9723,2.9723,0,0,0-1.0163,2.6255v13.2783c0,2.7264,1.704,6.0134,3.72,7.1778l23.272,13.4356a1.9148,1.9148,0,0,0,1.8767.2182,2.9741,2.9741,0,0,0,1.0162-2.6263V156.2945c0-2.7272-1.704-6.0142-3.72-7.1785L229.12,135.68A2.5643,2.5643,0,0,0,227.8951,135.2941Z"/>
          </g>
          <polygon class="ck" points="304.509 207.454 221.982 159.807 221.982 157.414 304.509 205.061 304.509 207.454"/>
          <g>
            <path class="cl" d="M234.3737,145.6626V150.5a1.1869,1.1869,0,0,0,1.7747,1.031l4.215-2.4033a1.1867,1.1867,0,0,0,.0056-2.0587l-4.2151-2.4337A1.1868,1.1868,0,0,0,234.3737,145.6626Z"/>
            <path class="cl" d="M246.8711,163.1075v-4.8368a1.1867,1.1867,0,0,0-1.7746-1.031l-4.2152,2.4032a1.1868,1.1868,0,0,0-.0055,2.0588l4.2151,2.4335A1.1868,1.1868,0,0,0,246.8711,163.1075Z"/>
            <path class="ck" d="M234.9671,158.29l3.3436,1.93a1.1868,1.1868,0,0,0,1.62-1.623l-3.3437-5.7672a1.1868,1.1868,0,0,0-2.2135.5953v3.8367A1.1868,1.1868,0,0,0,234.9671,158.29Z"/>
            <path class="ck" d="M246.2778,150.48l-3.3437-1.93a1.1868,1.1868,0,0,0-1.62,1.623l3.3436,5.7673a1.1868,1.1868,0,0,0,2.2135-.5953v-3.8368A1.1869,1.1869,0,0,0,246.2778,150.48Z"/>
            <g>
              <path class="bn" d="M255.9493,160.0649c0,1.7395-1.0872,2.2385-2.7744,1.2646l-2.1635-1.2491v-5.7259l2.2268,1.2861A5.2831,5.2831,0,0,1,255.9493,160.0649Zm-1.6856-.9576a2.3339,2.3339,0,0,0-1.061-2.0171l-.54-.3115v2.7859l.6184.357C253.88,160.267,254.2637,159.9486,254.2637,159.1073Z"/>
              <path class="bn" d="M260.6341,159.91v1.438l-2.5691-1.4827v.7024l2.3332,1.347v1.4373l-2.3332-1.347v.7109l2.6324,1.52v1.4373l-4.284-2.4736v-5.7259Z"/>
              <path class="bn" d="M262.9766,161.2631v4.15l2.0773,1.199v1.5761l-3.7289-2.1529v-5.7259Z"/>
              <path class="bn" d="M267.1341,163.6635v5.7259l-1.6515-.9538V162.71Z"/>
              <path class="bn" d="M269.2191,164.8672l1.0316,4.3525,1.0256-3.1652,1.6855.9731-1.9076,4.6248-1.7071-.9855-1.8938-6.8191Z"/>
              <path class="bn" d="M277.5033,169.65v1.4379l-2.5676-1.4827v.7025l2.3332,1.347v1.4373l-2.3332-1.347v.7109l2.6324,1.52v1.4373l-4.284-2.4736v-5.7259Z"/>
              <path class="bn" d="M281.0641,177.4314l-.5984-1.8319-.6184-.3571v1.4866l-1.6516-.9538v-5.7259l2.4134,1.3933a3.8414,3.8414,0,0,1,2.1266,3.2786c0,.8335-.2776,1.2938-.79,1.3571l.9823,2.4295Zm-1.2168-3.6262.7618.4395c.3547.2051.5613.0709.5613-.37a1.12,1.12,0,0,0-.5613-.9938l-.7618-.4395Z"/>
              <path class="bn" d="M286.3674,178.7129v1.7805l-1.65-.9531v-1.7395l-1.8227-5.0381,1.6438.9492,1.004,2.7842.9669-1.647,1.6439.9493Z"/>
              <path class="bn" d="M252.3561,164.7437c-.1326-.0763-.219-.08-.219.0425,0,.5135,1.8475,1.26,1.8475,2.74,0,.91-.6971.91-1.5.4456a5.96,5.96,0,0,1-1.7873-1.6847l.4364-.7626a5.3812,5.3812,0,0,0,1.36,1.42c.1743.1.2854.101.2854-.0447,0-.53-1.8475-1.2475-1.8475-2.6825,0-.8158.6015-.9824,1.5283-.4473a5.682,5.682,0,0,1,1.5513,1.38l-.4272.7795A6.4839,6.4839,0,0,0,252.3561,164.7437Z"/>
              <path class="bn" d="M257.3048,166.6267v1.0262l-1.8383-1.0609v.5011l1.67.9647v1.0262l-1.67-.9646v.5073l1.8846,1.0881v1.0262l-3.0658-1.77V164.884Z"/>
              <path class="bn" d="M259.8461,172.1813l-.4287-1.3076-.4426-.2561v1.0611l-1.1812-.6817V166.91l1.7256.9962a2.7477,2.7477,0,0,1,1.5236,2.3425c0,.5945-.1989.9229-.5659.9684l.7032,1.735Zm-.8713-2.59.5444.3146c.256.1473.4025.051.4025-.2636a.7978.7978,0,0,0-.4025-.71l-.5444-.3146Z"/>
              <path class="bn" d="M262.4369,169.59l.7387,3.109.7324-2.2593,1.2075.6971-1.3647,3.2993-1.2229-.7055-1.354-4.8693Z"/>
              <path class="bn" d="M266.5188,171.9469v4.0874l-1.18-.6816v-4.0874Z"/>
              <path class="bn" d="M268.7981,174.3465c-.4287-.2468-.7372-.0347-.7372.5073a1.6482,1.6482,0,0,0,.7372,1.3709.7916.7916,0,0,0,.81.0016l.6815,1.2268a1.4972,1.4972,0,0,1-1.5513-.0795,3.9424,3.9424,0,0,1-1.8907-3.2022c0-1.2012.8143-1.6053,1.9353-.9583a4.4494,4.4494,0,0,1,1.5067,1.616l-.6815.5336A2.4348,2.4348,0,0,0,268.7981,174.3465Z"/>
              <path class="bn" d="M273.5416,176.0012v1.0262l-1.8381-1.0609v.5011l1.67.9647v1.0262l-1.67-.9646v.5073l1.8844,1.0881v1.0262l-3.0642-1.77v-4.0874Z"/>
            </g>
          </g>
          <path class="bn" d="M380.95,200.76a.4249.4249,0,0,0,.6811-.0825.6943.6943,0,0,0-.0611-.8393.4251.4251,0,0,0-.6813.0825A.6942.6942,0,0,0,380.95,200.76Z"/>
          <path class="bn" d="M380.9894,200.7012a.3709.3709,0,0,0,.5945-.0721.6059.6059,0,0,0-.0535-.7325.3649.3649,0,0,0-.5569.0229.5249.5249,0,0,0-.0376.0491A.606.606,0,0,0,380.9894,200.7012Z"/>
          <path class="bn" d="M381.2683,199.7785a2.311,2.311,0,0,1,.4335.071c.1062.0448.0618.7863.0618.7863a1.7445,1.7445,0,0,1-.4583.18C381.0983,200.8518,381.2683,199.7785,381.2683,199.7785Z"/>
          <path class="cg" d="M381.4342,200.57a.2915.2915,0,0,0,.4673-.0566.4764.4764,0,0,0-.0421-.5758.2915.2915,0,0,0-.4672.0566A.4763.4763,0,0,0,381.4342,200.57Z"/>
          <polygon class="bn" points="376.811 200.555 376.213 201.119 381.238 200.61 381.183 199.9 376.811 200.555"/>
          <path class="cg" d="M381.6094,198.4671c-.0513.0053-14.2425,7.367-14.2425,7.367l-.152-.449,13.8285-7.4783Z"/>
          <polygon class="bu" points="381.722 210.778 389.44 220.407 366.646 233.587 354.597 220.207 366.526 234.133 390.064 220.543 381.722 210.778"/>
        </g>
        <path class="bu" d="M374.5793,256.3554l6.7153-3.8771a2.8547,2.8547,0,0,0,1.1921-2.2777V246.369c0-.8778-.5336-1.2813-1.1921-.9012l-6.7153,3.8771a2.8549,2.8549,0,0,0-1.1922,2.2777v3.8316C373.3871,256.332,373.9209,256.7355,374.5793,256.3554Z"/>
        <path class="bt" d="M382.8528,246.5235v3.8371a2.8582,2.8582,0,0,1-1.2023,2.2729l-6.72,3.87c-.6586.3788-1.1858-.0168-1.1858-.8894V251.777a2.8443,2.8443,0,0,1,1.1858-2.2725l6.72-3.8869C382.3094,245.2388,382.8528,245.6505,382.8528,246.5235Z"/>
        <path class="cm" d="M382.8528,246.5235v.4278l-9.1076,5.2539v-.4282a2.8443,2.8443,0,0,1,1.1858-2.2725l6.72-3.8869C382.3094,245.2388,382.8528,245.6505,382.8528,246.5235Z"/>
        <path class="cn" d="M217.9732,180.9559c-.0015-.1-.0278-7.7653-.02-12.3538-.8451-.4056-1.7333-.84-2.2346-1.1088l-.4657-.249.1311-.6238a4.7968,4.7968,0,0,1,3.1983-1.7726.7389.7389,0,0,1,.6246.751c-.0077.42-.0139,1.2128-.017,2.226.8312.3963,1.4989.7085,1.5144.7147a1.5525,1.5525,0,0,0,1.7071.0517l.8466-.5412.6662,1.0408-.8466.5413a2.7369,2.7369,0,0,1-2.9732-.0162c-.02-.0069-.39-.1781-.916-.4263-.0062,4.614.0185,11.6652.0185,11.7617Zm-1.007-14.2105c.2991.15.64.3169.9915.4873.0016-.3886.0032-.7333.0062-1.0224A7.64,7.64,0,0,0,216.9662,166.7454Z"/>
        <path class="cn" d="M219.0259,180.7023a.9648.9648,0,0,0-.8735-.0015.2661.2661,0,0,0,.0028.5042.9664.9664,0,0,0,.8735.0017A.2663.2663,0,0,0,219.0259,180.7023Z"/>
        <path class="cn" d="M223.1511,168.3263a.9655.9655,0,0,0,.45.7488c.2431.1342.4358.0166.43-.2627a.9663.9663,0,0,0-.45-.749C223.3386,167.9294,223.1459,168.047,223.1511,168.3263Z"/>
      </g>
      <g>
        <path class="co" d="M471.4486,313.19a15.3467,15.3467,0,0,1-13.8862-.0251c-3.8466-2.2208-3.8661-5.81-.0435-8.0172a15.3469,15.3469,0,0,1,13.8863.025C475.2517,307.3931,475.2712,310.9825,471.4486,313.19Z"/>
        <path class="cp" d="M471.5328,221.0579l-.0118.0169c-3.4646-1.4418-7.9725-.9354-12.9154,1.9189-10.9131,6.3005-19.7569,21.5547-19.7569,34.0769,0,17.0407,19.7569,36.426,19.7569,36.426l5.8784,2.9044,13.0377-72.3679Z"/>
        <path class="cp" d="M464.4838,225.8972c10.9132-6.3007,19.7568-1.2585,19.7568,11.2644,0,17.0408-19.7568,59.2392-19.7568,59.2392s-19.7569-19.3852-19.7569-36.426C444.7269,247.4519,453.5706,232.198,464.4838,225.8972Z"/>
        <ellipse class="bx" cx="466.4601" cy="251.2122" rx="16.1358" ry="9.3156" transform="translate(14.1704 527.1228) rotate(-59.6892)"/>
        <path class="cq" d="M446.2927,260.6352c0-12.2329,8.6387-27.1331,19.2987-33.2875,10.5446-6.0881,18.4476-1.6207,18.632,10.3224.0033-.1663.0173-.3462.0173-.5088,0-12.5225-8.8438-17.565-19.757-11.2642s-19.7569,21.5549-19.7569,34.0779c0,17.04,19.7569,36.4254,19.7569,36.4254h0C464.4808,296.3977,446.2927,277.2794,446.2927,260.6352Z"/>
      </g>
      <g>
        <path class="cr" d="M336.4768,66.5159H335.145v56.962h0v.0007a.6659.6659,0,1,0,1.3318.0007l0-.0014h0Z"/>
        <path class="cr" d="M338.7792,66.0716a2.9685,2.9685,0,1,1-2.9685-2.9684A2.9685,2.9685,0,0,1,338.7792,66.0716Z"/>
      </g>
      <g>
        <g>
          <g>
            <polygon class="cs" points="338.506 52.229 315.82 39.131 315.82 13.098 338.506 26.196 338.506 52.229"/>
            <polygon class="ct" points="315.82 13.098 338.506 26.196 326.265 19.647 315.82 13.098"/>
            <polygon class="cu" points="338.506 52.229 361.193 39.131 361.193 13.098 338.506 26.196 338.506 52.229"/>
            <polygon class="cv" points="338.506 26.196 361.193 13.098 338.506 0 315.82 13.098 338.506 26.196"/>
            <polygon class="cw" points="328.283 30.578 324.638 28.473 324.638 18.189 328.283 20.294 328.283 30.578"/>
            <polygon class="cx" points="328.283 20.294 350.969 7.195 347.324 5.091 324.638 18.189 328.283 20.294"/>
            <polygon class="ct" points="361.193 13.098 338.506 26.196 350.748 19.647 361.193 13.098"/>
            <polygon class="cy" points="348.347 30.799 351.992 28.694 351.992 18.41 348.347 20.515 348.347 30.799"/>
            <polygon class="cz" points="348.347 20.515 325.66 7.416 329.305 5.312 351.992 18.41 348.347 20.515"/>
            <polygon class="da" points="350.033 19.541 327.346 6.443 327.597 6.298 350.283 19.396 350.033 19.541"/>
            <polygon class="cu" points="348.347 20.515 348.347 20.939 350.569 19.75 351.992 18.858 351.992 18.41 348.347 20.515"/>
          </g>
          <polygon class="cu" points="326.265 19.647 328.283 20.727 328.283 20.294 324.638 18.189 324.638 18.627 326.265 19.647"/>
        </g>
        <g>
          <path class="ct" d="M339.8905,26.7549l4.7875-2.7643v5.4967l-4.7875,2.7637Zm4.4728-2.2188-4.1581,2.4006v4.7689l4.1581-2.4Z"/>
          <g>
            <polygon class="ct" points="341.756 30.491 342.812 29.881 342.812 27.114 341.756 27.723 341.756 30.491"/>
            <polygon class="ct" points="340.718 28.85 343.851 27.041 342.284 26.056 340.718 28.85"/>
          </g>
        </g>
        <g>
          <polygon class="db" points="326.107 35.479 326.107 42.848 316.356 37.218 316.356 29.85 326.107 35.479"/>
          <path class="cp" d="M297.8038,25.1906l1.2675.883a1.567,1.567,0,0,0,.6116.6944l2.2415,1.294,4.2066,2.9313a30.4345,30.4345,0,0,0,11.81,20.182l.4485,5.1171v5.0262a1.7187,1.7187,0,0,0,.5507,1.2551l.1275,1.4556,2.03-1.2754-.0034-.0362a1.7033,1.7033,0,0,0,.764-1.3991V53.3378a11.9275,11.9275,0,0,0,4.3657.9288,8.2662,8.2662,0,0,0,4.1883-1.0895,8.9039,8.9039,0,0,0,4.0081-5.46l4.2182,2.93,2.0392-1.2777-.0012-.01a1.5857,1.5857,0,0,0,.4776-.5058,1.61,1.61,0,0,0-.5891-2.2l-5.5778-3.22c-.0259-8.5683-5.7443-18.585-13.129-23.1424V12.1034a1.7348,1.7348,0,0,0-1.7346-1.7346,1.7105,1.7105,0,0,0-.6134.1241l-.0006-.0088-.0206.0131a1.6871,1.6871,0,0,0-.3966.2481l-1.7344,1.0856.6019,6.6661a9.1758,9.1758,0,0,0-7.3907.5741c-2.5008,1.4441-4.0374,4.144-4.4521,7.6942l-4.8251-2.7859a1.5878,1.5878,0,0,0-1.5846.0164l-.0254-.0153Zm11.66,3.5065c.0122-3.2182,1.0192-5.57,2.84-6.6218a4.4832,4.4832,0,0,1,.8188-.3295,5.0871,5.0871,0,0,1,1.6471-.2923,6.8823,6.8823,0,0,1,1.1219.0958,9.99,9.99,0,0,1,2.4378.765c.0193.0084.04.0214.06.03V28.63a1.7047,1.7047,0,0,0,.1749.7321l-.6169.334,1.1729,1.62,1.7918-1.1426-.0131-.0122a1.7215,1.7215,0,0,0,.96-1.5311V24.5192a25.3755,25.3755,0,0,1,5.1421,5.6786h0a29.19,29.19,0,0,1,1.5664,2.6206l0-.0012A26.0616,26.0616,0,0,1,331.1583,40l0-.0007.0149.0744c.0806.4264.1455.85.1976,1.2715l-3.585-2.07a1.5816,1.5816,0,0,0-1.4544-.0474l-.0321-.04-2.1078,1.3857,1.5192,1.6678.418-.22c.0182.0115.0283.0305.0471.0416l5.2445,3.0282c-.02.1673-.0375.336-.0634.4971a9.5447,9.5447,0,0,1-.3517,1.4491c-.0167.051-.0352.1-.053.15a6.9486,6.9486,0,0,1-.5331,1.1932l-.0056.0111a5.2845,5.2845,0,0,1-.7.9326c-.055.0595-.1118.1156-.1691.171a4.418,4.418,0,0,1-.8658.6775,4.5765,4.5765,0,0,1-1.5225.5421,5.53,5.53,0,0,1-.8523.0775,9.4568,9.4568,0,0,1-4.4446-1.262V44.792a1.7345,1.7345,0,0,0-1.7346-1.7346,1.6871,1.6871,0,0,0-.9011.2886l-.0154-.019-1.9238,1.25,1.1057,2.2988v.23c-.2971-.26-.59-.5263-.8781-.8058a26.5538,26.5538,0,0,1-3.1876-3.76l-.0819-.1176a29.19,29.19,0,0,1-2.4332-4.21c-.0389-.0828-.0794-.1648-.1176-.2481q-.4871-1.0593-.8791-2.14c-.0317-.0874-.0588-.1756-.0893-.2635q-.3462-.991-.602-1.9864c-.0234-.0917-.0518-.1829-.074-.2741-.05-.2069-.0733-.4108-.1176-.6169l1.3575.7836-.0714.0367,1.1028,1.7682,1.8556-1.1883-.005-.0122a1.582,1.582,0,0,0,.4933-.5139,1.6094,1.6094,0,0,0-.5889-2.1991Z"/>
          <g>
            <polygon class="dc" points="324.403 40.933 325.179 41.381 325.179 35.874 324.403 35.426 324.403 40.933"/>
            <polygon class="dc" points="318.734 37.66 319.51 38.108 319.51 32.601 318.734 32.153 318.734 37.66"/>
            <polygon class="dc" points="323.545 40.437 324.02 40.712 324.02 35.205 323.545 34.931 323.545 40.437"/>
            <polygon class="dc" points="319.846 38.302 320.322 38.576 320.322 33.07 319.846 32.795 319.846 38.302"/>
            <polygon class="dc" points="322.855 40.039 323.192 40.234 323.192 34.727 322.855 34.532 322.855 40.039"/>
            <polygon class="dc" points="322.078 39.59 322.415 39.785 322.415 34.278 322.078 34.084 322.078 39.59"/>
            <polygon class="dc" points="318.061 37.271 318.398 37.466 318.398 31.959 318.061 31.765 318.061 37.271"/>
            <polygon class="dc" points="317.284 36.823 317.853 37.151 317.853 31.644 317.284 31.316 317.284 36.823"/>
            <polygon class="dc" points="321.525 39.272 321.863 39.466 321.863 33.959 321.525 33.765 321.525 39.272"/>
            <polygon class="dc" points="320.657 38.77 321.253 39.114 321.253 33.607 320.657 33.263 320.657 38.77"/>
          </g>
          <g>
            <path class="cr" d="M317.8988,53.3831C310.2549,48.97,304.2664,38.64,304.2664,29.8652c0-4.54,1.6261-7.98,4.5775-9.684,2.9735-1.7192,6.8058-1.3956,10.7895.9042,7.6441,4.4132,13.6309,14.7434,13.6309,23.518,0,4.5412-1.6262,7.98-4.5775,9.684a8.2665,8.2665,0,0,1-4.1885,1.0893A13.3693,13.3693,0,0,1,317.8988,53.3831Zm-7.32-30.1974c-1.8327,1.0584-2.8429,3.43-2.8429,6.68,0,7.5244,5.338,16.7265,11.8978,20.5133,2.8653,1.6546,5.4655,1.9738,7.3188.9052,1.8327-1.0583,2.8429-3.4314,2.8429-6.68,0-7.5236-5.3364-16.7257-11.8963-20.5134a9.9688,9.9688,0,0,0-4.8544-1.5263A4.8629,4.8629,0,0,0,310.5785,23.1857Z"/>
            <path class="cr" d="M318.3982,31.4748h0a1.7346,1.7346,0,0,0,1.7346-1.7346V13.2138a1.7345,1.7345,0,0,0-1.7346-1.7346h0a1.7345,1.7345,0,0,0-1.7346,1.7346V29.74A1.7346,1.7346,0,0,0,318.3982,31.4748Z"/>
            <path class="cr" d="M318.3982,64.1633h0a1.7345,1.7345,0,0,0,1.7346-1.7346V45.9023a1.7346,1.7346,0,0,0-1.7346-1.7346h0a1.7346,1.7346,0,0,0-1.7346,1.7346V62.4287A1.7345,1.7345,0,0,0,318.3982,64.1633Z"/>
            <path class="cr" d="M312.936,34.6683h0a1.61,1.61,0,0,0-.5889-2.2l-12.78-7.379a1.61,1.61,0,0,0-2.1988.5887h0a1.61,1.61,0,0,0,.5889,2.2l12.78,7.379A1.61,1.61,0,0,0,312.936,34.6683Z"/>
            <path class="cr" d="M339.4286,49.964h0a1.61,1.61,0,0,0-.589-2.2l-12.78-7.3791a1.61,1.61,0,0,0-2.1988.5889h0a1.61,1.61,0,0,0,.589,2.2l12.78,7.3789A1.61,1.61,0,0,0,339.4286,49.964Z"/>
          </g>
        </g>
      </g>
    </g>
  </g>
</svg>
