<svg xmlns="http://www.w3.org/2000/svg" viewBox="0 0 217.8314 217.8314">
  <defs>
    <style>
      .a {
        fill: transparent;
      }

      .b {
        fill: #333;
      }
    </style>
  </defs>
  <title>card1</title>
  <g>
    <rect class="a" width="217.8314" height="217.8314"/>
    <g>
      <path class="b" d="M200.7992,34.598H19.6705A12.7782,12.7782,0,0,0,6.9068,47.3616V173.1724A12.7782,12.7782,0,0,0,19.6705,185.936H200.7992a12.7781,12.7781,0,0,0,12.7636-12.7636V47.3616A12.7781,12.7781,0,0,0,200.7992,34.598Zm6.5048,138.5744a6.5123,6.5123,0,0,1-6.5048,6.5049H19.6705a6.5123,6.5123,0,0,1-6.5049-6.5049V47.3616a6.5122,6.5122,0,0,1,6.5049-6.5048H200.7992a6.5122,6.5122,0,0,1,6.5048,6.5048Z"/>
      <path class="b" d="M199.6385,66.3482a3.1292,3.1292,0,0,0-3.1294-3.1294H23.703a3.1294,3.1294,0,0,0,0,6.2588H196.5091A3.1292,3.1292,0,0,0,199.6385,66.3482Z"/>
      <path class="b" d="M29.0433,56.2675a4.0086,4.0086,0,1,0-4.0088-4.0086A4.0086,4.0086,0,0,0,29.0433,56.2675Z"/>
      <path class="b" d="M43.89,56.2675a4.0086,4.0086,0,1,0-4.0088-4.0086A4.0086,4.0086,0,0,0,43.89,56.2675Z"/>
      <path class="b" d="M58.7367,56.2675a4.0086,4.0086,0,1,0-4.0086-4.0086A4.0086,4.0086,0,0,0,58.7367,56.2675Z"/>
      <path class="b" d="M157.7054,126.347a19.2157,19.2157,0,1,0,19.2158,19.2156A19.2374,19.2374,0,0,0,157.7054,126.347Zm0,32.1727a12.957,12.957,0,1,1,12.957-12.9571A12.972,12.972,0,0,1,157.7054,158.52Z"/>
      <path class="b" d="M192.3189,92.6373a11.8727,11.8727,0,0,0-8.45,3.5,5.691,5.691,0,0,1-9.7154-4.0242,11.9635,11.9635,0,0,0-11.95-11.95h-8.9966a11.9638,11.9638,0,0,0-11.95,11.95,5.6914,5.6914,0,0,1-9.7156,4.0247,11.9485,11.9485,0,0,0-16.8994-.0005l-6.3618,6.3618a11.9638,11.9638,0,0,0,0,16.9,5.6912,5.6912,0,0,1-4.0247,9.7154,11.9633,11.9633,0,0,0-11.95,11.95v8.9966a11.9635,11.9635,0,0,0,11.95,11.95,5.6912,5.6912,0,0,1,4.0245,9.7154,3.1294,3.1294,0,1,0,4.4255,4.4259,11.95,11.95,0,0,0-8.45-20.4,5.6973,5.6973,0,0,1-5.6909-5.691v-8.9966a5.6977,5.6977,0,0,1,5.6911-5.6911,11.95,11.95,0,0,0,8.45-20.4,5.6983,5.6983,0,0,1,0-8.0488l6.3615-6.3618a5.6909,5.6909,0,0,1,8.0489,0,11.95,11.95,0,0,0,20.4-8.45,5.6978,5.6978,0,0,1,5.6914-5.6911h8.9966a5.6977,5.6977,0,0,1,5.6912,5.6911,11.95,11.95,0,0,0,20.4,8.45,5.6974,5.6974,0,0,1,8.0485,0,3.13,3.13,0,1,0,4.4256-4.426A11.872,11.872,0,0,0,192.3189,92.6373Z"/>
    </g>
  </g>
</svg>
