<svg xmlns="http://www.w3.org/2000/svg" viewBox="0 0 217.8314 217.8314">
  <defs>
    <style>
      .a {
        fill: transparent;
      }

      .b {
        fill: #333;
      }
    </style>
  </defs>
  <title>card3</title>
  <g>
    <rect class="a" width="217.8314" height="217.8314"/>
    <g>
      <path class="b" d="M191.5992,184.71H26.646A20.7342,20.7342,0,0,1,5.9352,163.9991V55.5919A20.7342,20.7342,0,0,1,26.646,34.8813H191.5992A20.7341,20.7341,0,0,1,212.31,55.5919V163.9991A20.7341,20.7341,0,0,1,191.5992,184.71ZM26.646,41.14A14.4681,14.4681,0,0,0,12.194,55.5919V163.9991a14.4685,14.4685,0,0,0,14.452,14.4522H191.5992a14.4684,14.4684,0,0,0,14.4519-14.4522V55.5919A14.468,14.468,0,0,0,191.5992,41.14Z"/>
      <path class="b" d="M209.1805,155.0453H9.0646a3.1294,3.1294,0,1,1,0-6.2587H209.1805a3.1294,3.1294,0,1,1,0,6.2587Z"/>
      <path class="b" d="M116.27,169.786H101.9755a3.1294,3.1294,0,0,1,0-6.2588H116.27a3.1294,3.1294,0,0,1,0,6.2588Z"/>
      <g>
        <path class="b" d="M163.4684,131.498a3.1293,3.1293,0,0,1-3.1294-3.1294v-.02c0-4.276-1.5048-15.6468-15.4431-28.855a27.0214,27.0214,0,0,1,18.3777-46.6065c.0654,0,.1318-.0008.1974-.0008a27.0037,27.0037,0,0,1,18.5756,46.602c-11.39,10.8-15.4488,21.9994-15.4488,28.88A3.1293,3.1293,0,0,1,163.4684,131.498Zm.0012-72.3526c-.0507,0-.101,0-.1518.0008a20.7446,20.7446,0,0,0-14.117,35.8045c3.5662,3.38,10.3561,10.58,14.3165,19.6576a51.65,51.65,0,0,1,2.66-5.1724A67.6551,67.6551,0,0,1,177.7405,94.947,20.7454,20.7454,0,0,0,163.47,59.1454Z"/>
        <path class="b" d="M163.4684,91.0141a11.0494,11.0494,0,1,1,11.0494-11.0494A11.0619,11.0619,0,0,1,163.4684,91.0141Zm0-15.84a4.7907,4.7907,0,1,0,4.7906,4.7906A4.7959,4.7959,0,0,0,163.4684,75.1741Z"/>
      </g>
      <path class="b" d="M52.4385,85.9513H25.3123a3.1294,3.1294,0,1,1,0-6.2588H49.3091V56.2271a3.1294,3.1294,0,1,1,6.2587,0V82.8219A3.1292,3.1292,0,0,1,52.4385,85.9513Z"/>
      <path class="b" d="M52.4385,140.88a3.1293,3.1293,0,0,1-3.1294-3.1294V99.2018H25.3123a3.1294,3.1294,0,1,1,0-6.2587H52.4385a3.1292,3.1292,0,0,1,3.1293,3.1294v41.6781A3.1292,3.1292,0,0,1,52.4385,140.88Z"/>
      <path class="b" d="M126.7864,85.9513H66.4127a3.1293,3.1293,0,0,1-3.1294-3.1294V56.2271a3.1293,3.1293,0,0,1,3.1294-3.1294h45.6414a3.1294,3.1294,0,0,1,0,6.2588H69.5421v20.336h57.2443a3.1294,3.1294,0,0,1,0,6.2588Z"/>
      <path class="b" d="M116.2716,140.8808a3.13,3.13,0,0,1-2.8321-1.7945L94.616,99.2018H69.5421v38.5488a3.1294,3.1294,0,0,1-6.2588,0V96.0725a3.1293,3.1293,0,0,1,3.1294-3.1294H96.6a3.13,3.13,0,0,1,2.83,1.7937l19.67,41.6781a3.1312,3.1312,0,0,1-2.8281,4.4659Z"/>
      <path class="b" d="M130.0535,140.8808a3.13,3.13,0,0,1-2.8321-1.7945l-19.67-41.6781a3.1294,3.1294,0,0,1,2.83-4.4651h19.3257a3.1294,3.1294,0,1,1,0,6.2587H115.3188l17.5628,37.2131a3.1312,3.1312,0,0,1-2.8281,4.4659Z"/>
    </g>
  </g>
</svg>
