<svg xmlns="http://www.w3.org/2000/svg" viewBox="0 0 217.8314 217.8314">
  <defs>
    <style>
      .a {
        fill: transparent;
      }

      .b {
        fill: #333;
      }
    </style>
  </defs>
  <title>card2</title>
  <g>
    <rect class="a" width="217.8314" height="217.8314"/>
    <g>
      <path class="b" d="M60.0234,112.1483a21.0033,21.0033,0,1,0,21.003,21.0036A21.0273,21.0273,0,0,0,60.0234,112.1483Zm0,35.8269a14.8235,14.8235,0,1,1,14.8232-14.8233A14.84,14.84,0,0,1,60.0234,147.9752Z"/>
      <path class="b" d="M164.9591,112.2325a20.9195,20.9195,0,1,0,20.92,20.9194A20.9431,20.9431,0,0,0,164.9591,112.2325Zm0,35.6589a14.74,14.74,0,1,1,14.74-14.7395A14.7562,14.7562,0,0,1,164.9591,147.8914Z"/>
      <path class="b" d="M83.609,96.9534,113.9328,95.42q.073-.003.1465-.01c.0334-.0027.0668-.0064.1-.01l31.4987-3.6238,14.773-1.0718a3.0909,3.0909,0,0,0,2.1808-1.1411l9.9035-12.2707a3.09,3.09,0,0,0-4.8091-3.8814L158.6654,84.637l-9.9974.7259.6564-11.8907a3.09,3.09,0,0,0-6.1706-.34l-.7063,12.7947-24.9067,2.8655L120,74.3006a3.09,3.09,0,1,0-6.0929-1.0339l-2.7325,16.1047L83.5233,90.77,71.8357,89.6451l-3.009-2.2964a3.09,3.09,0,1,0-3.749,4.9126l3.71,2.8313a3.0934,3.0934,0,0,0,1.5784.62l12.7908,1.2312q.1479.0137.2961.0139C83.505,96.9573,83.5569,96.9561,83.609,96.9534Z"/>
      <path class="b" d="M21.3043,110.7642a3.09,3.09,0,0,0,.2766,6.167c.0937,0,.1884-.0039.2838-.0127,8.9878-.8183,10.1644-1.4626,10.6669-1.7378.0247-.0136.05-.0273.0741-.042l12.9306-7.5507a5.1243,5.1243,0,0,0-1.5144-9.4961c-.0766-.0152-.1539-.0274-.2314-.0369l-4.5846-.5493a3.09,3.09,0,0,0-.735,6.1365l1.301.1557-10.0677,5.8789A83.279,83.279,0,0,1,21.3043,110.7642Z"/>
      <path class="b" d="M135.54,132.9236H86.5127a3.09,3.09,0,1,0,0,6.18H135.54a3.09,3.09,0,0,0,0-6.18Z"/>
      <path class="b" d="M208.0836,99.5645a3.0876,3.0876,0,0,0-.3725-.9958c-.4537-.7725-10.4151-17.7058-15.597-24.1834.5923-.3972,1.3167-.8269,1.8007-1.1138,2.4243-1.4372,4.931-2.9233,4.5532-5.7006-.2376-1.7471-1.5361-2.9524-3.86-3.5826-12.9906-3.5234-39.8579-4.7739-58.9182-4.7739-26.9944,0-32.578,2.1013-56.0787,10.9458l-.5519.2075c-.05.0186-.0984.0389-.1468.06-2.1014.9165-51.5611,22.49-59.9173,26.3716a13.7356,13.7356,0,0,0-7.5342,9.0391L8.163,118.5567c-.0153.0584-.0286.1174-.04.1768a14.24,14.24,0,0,0,3.16,12.1259c4.0169,4.8887,10.6732,7.4922,13.9337,7.4922h5.6188a3.09,3.09,0,0,0,0-6.18H25.2166c-1.4525,0-6.32-1.781-9.159-5.2356a8.037,8.037,0,0,1-1.8883-6.9219l3.2739-12.625a7.5766,7.5766,0,0,1,4.156-4.9858c8.1452-3.7837,57.5031-25.3162,59.7113-26.28l.4776-.1794c23.2034-8.7327,28.0322-10.55,53.9021-10.55,16.8644,0,39.87.9734,53.3113,3.6379-1.8512,1.201-3.4358,2.5794-3.73,4.6128a4.3547,4.3547,0,0,0,1.1921,3.63c3.4151,3.6748,12.189,18.1006,15.6428,23.9553.9753,5.37,2.1893,14.4309,1.5415,17.5279s-3.8072,5.9777-4.9621,6.8208l-.0206.0146a22.8188,22.8188,0,0,1-5.4242.7424,3.092,3.092,0,0,0-4.0705,2.931,3.1722,3.1722,0,0,0,1.9393,2.9069c.4253.1824,1.4208.61,5.5659.0918,3.6343-.4538,5-1.1342,5.7544-1.7695,1.048-.781,6.0768-4.7817,7.267-10.4731C210.8356,114.5821,208.3687,101.0853,208.0836,99.5645Z"/>
      <path class="b" d="M186.7033,81.9507a3.0892,3.0892,0,0,0-4.1887,1.2452l-3.1414,5.8a3.09,3.09,0,0,0,.9768,4.0254l12.2033,8.3156a3.09,3.09,0,0,0,3.48-5.1071l-9.8972-6.7444,1.8123-3.3457A3.09,3.09,0,0,0,186.7033,81.9507Z"/>
      <path class="b" d="M109.2967,127.9063a3.0876,3.0876,0,0,0,4.1409-1.3962l5.6518-11.3994a3.09,3.09,0,0,0-2.7681-4.4622h-.0278l-2.9672.0264,3.7836-6.9009a3.09,3.09,0,0,0-5.4191-2.9707l-6.3177,11.5232a3.09,3.09,0,0,0,.0577,3.072,3.14,3.14,0,0,0,2.6792,1.5034l3.2081-.029-3.4171,6.8923A3.09,3.09,0,0,0,109.2967,127.9063Z"/>
    </g>
  </g>
</svg>
